<svg width="15" height="15" viewBox="0 0 206 231" fill="none" xmlns="http://www.w3.org/2000/svg">
<path d="M117 172.5C117 179.956 110.956 186 103.5 186C96.0442 186 90 179.956 90 172.5C90 165.044 96.0442 159 103.5 159C110.956 159 117 165.044 117 172.5Z" />
<path d="M97 140.5C97 136.91 99.9101 134 103.5 134C107.09 134 110 136.91 110 140.5V167.5C110 171.09 107.09 174 103.5 174C99.9101 174 97 171.09 97 167.5V140.5Z" />
<path d="M56 96.5V58.5H40V96.5H56ZM56 58.5C56 40.9209 72.8999 15.9999 102.5 16L102.5 -4.94765e-10C63.1001 -0.00015831 40 33.0794 40 58.5H56ZM102.5 16C132.73 16.0001 150.5 38.0662 150.5 58.5H166.5C166.5 28.9365 141.27 0.000155448 102.5 -4.94765e-10L102.5 16ZM150.5 58.5V96.5H166.5V58.5H150.5ZM27 101H179V85H27V101ZM190 112V204H206V112H190ZM179 215H27V231H179V215ZM16 204V112H0V204H16ZM27 215C20.9249 215 16 210.075 16 204H0C0 218.912 12.0883 231 27 231V215ZM190 204C190 210.075 185.075 215 179 215V231C193.912 231 206 218.912 206 204H190ZM179 101C185.075 101 190 105.925 190 112H206C206 97.0883 193.912 85 179 85V101ZM27 85C12.0883 85 0 97.0883 0 112H16C16 105.925 20.9249 101 27 101V85Z" />
</svg>
