<svg width="140" height="130" viewBox="0 0 140 130" fill="none" xmlns="http://www.w3.org/2000/svg" class="coffee">
<path fill-rule="evenodd" clip-rule="evenodd" d="M22.2887 5.91371C14.3753 43.4887 1.32957 103.836 1.32957 103.836C7.36873 110.325 18.0493 117.953 23.8089 120.176C29.5549 122.393 54.1839 127.796 61.1997 128.05C66.9905 128.26 81.9975 128.399 88.4107 123.521L92.0086 106.438C92.0086 106.438 103.448 110.463 112.672 107.423C118.547 105.487 122.461 103.278 126.907 98.9756C132.192 93.8609 135.068 84.1994 137.104 74.5294C138.678 67.0597 137.534 60.3647 135.333 54.9683C133.132 49.572 130.743 46.4254 126.317 42.634C122.93 39.7325 117.849 37.2858 114.264 36.7292C111.381 36.2817 108.385 36.6694 108.385 36.6694L110.931 24.5818C106.884 25.4128 100.226 25.862 93.6092 25.3101C92.8066 25.2431 91.9909 25.1788 91.1538 25.1128C85.09 24.6347 77.9018 24.0679 66.4141 21.7709C52.0235 18.8934 32.7558 12.1577 30.1178 11.0972C29.9635 11.0351 29.8097 10.9738 29.6562 10.9126C27.1855 9.92724 24.8122 8.98074 22.2887 5.91371ZM113.041 46.0258C114.339 45.6817 115.712 45.318 117.283 44.7709C121.768 45.051 124.504 46.0986 128.03 48.8858C132.171 52.1597 133.694 55.3466 135.019 60.4566C136.346 65.5745 136.076 68.9215 135.332 74.156C134.587 79.3905 131.556 89.6874 127.755 94.9464C124.635 99.2632 121.689 101.124 116.659 102.877C112.279 104.404 107.755 103.6 104.902 102.757C101.968 101.89 97.4897 96.9519 95.8565 95.0612C95.4614 94.6039 95.2329 94.3248 95.2329 94.3248L105.839 48.7569C108.501 47.2284 110.644 46.6607 113.041 46.0258Z" fill="#EEEEED"/>
<path fill-rule="evenodd" clip-rule="evenodd" d="M22.2887 5.91371C14.3753 43.4887 1.32957 103.836 1.32957 103.836C7.36873 110.325 18.0493 117.953 23.8089 120.176C29.5549 122.393 54.1839 127.796 61.1997 128.05C66.9905 128.26 81.9975 128.399 88.4107 123.521L92.0086 106.438C92.0086 106.438 103.448 110.463 112.672 107.423C118.547 105.487 122.461 103.278 126.907 98.9756C132.192 93.8609 135.068 84.1994 137.104 74.5294C138.678 67.0597 137.534 60.3647 135.333 54.9683C133.132 49.572 130.743 46.4254 126.317 42.634C122.93 39.7325 117.849 37.2858 114.264 36.7292C111.381 36.2817 108.385 36.6694 108.385 36.6694L110.931 24.5818C106.884 25.4128 100.226 25.862 93.6092 25.3101C92.8066 25.2431 91.9909 25.1788 91.1538 25.1128C85.09 24.6347 77.9018 24.0679 66.4141 21.7709C52.0235 18.8934 32.7558 12.1577 30.1178 11.0972C29.9635 11.0351 29.8097 10.9738 29.6562 10.9126C27.1855 9.92724 24.8122 8.98074 22.2887 5.91371ZM113.041 46.0258C114.339 45.6817 115.712 45.318 117.283 44.7709C121.768 45.051 124.504 46.0986 128.03 48.8858C132.171 52.1597 133.694 55.3466 135.019 60.4566C136.346 65.5745 136.076 68.9215 135.332 74.156C134.587 79.3905 131.556 89.6874 127.755 94.9464C124.635 99.2632 121.689 101.124 116.659 102.877C112.279 104.404 107.755 103.6 104.902 102.757C101.968 101.89 97.4897 96.9519 95.8565 95.0612C95.4614 94.6039 95.2329 94.3248 95.2329 94.3248L105.839 48.7569C108.501 47.2284 110.644 46.6607 113.041 46.0258Z" fill="url(#paint0_linear)" fill-opacity="0.3"/>
<path fill-rule="evenodd" clip-rule="evenodd" d="M22.2887 5.91371C14.3753 43.4887 1.32957 103.836 1.32957 103.836C7.36873 110.325 18.0493 117.953 23.8089 120.176C29.5549 122.393 54.1839 127.796 61.1997 128.05C66.9905 128.26 81.9975 128.399 88.4107 123.521L92.0086 106.438C92.0086 106.438 103.448 110.463 112.672 107.423C118.547 105.487 122.461 103.278 126.907 98.9756C132.192 93.8609 135.068 84.1994 137.104 74.5294C138.678 67.0597 137.534 60.3647 135.333 54.9683C133.132 49.572 130.743 46.4254 126.317 42.634C122.93 39.7325 117.849 37.2858 114.264 36.7292C111.381 36.2817 108.385 36.6694 108.385 36.6694L110.931 24.5818C106.884 25.4128 100.226 25.862 93.6092 25.3101C92.8066 25.2431 91.9909 25.1788 91.1538 25.1128C85.09 24.6347 77.9018 24.0679 66.4141 21.7709C52.0235 18.8934 32.7558 12.1577 30.1178 11.0972C29.9635 11.0351 29.8097 10.9738 29.6562 10.9126C27.1855 9.92724 24.8122 8.98074 22.2887 5.91371ZM113.041 46.0258C114.339 45.6817 115.712 45.318 117.283 44.7709C121.768 45.051 124.504 46.0986 128.03 48.8858C132.171 52.1597 133.694 55.3466 135.019 60.4566C136.346 65.5745 136.076 68.9215 135.332 74.156C134.587 79.3905 131.556 89.6874 127.755 94.9464C124.635 99.2632 121.689 101.124 116.659 102.877C112.279 104.404 107.755 103.6 104.902 102.757C101.968 101.89 97.4897 96.9519 95.8565 95.0612C95.4614 94.6039 95.2329 94.3248 95.2329 94.3248L105.839 48.7569C108.501 47.2284 110.644 46.6607 113.041 46.0258Z" fill="url(#paint1_linear)" fill-opacity="0.5"/>
<path d="M22.2887 5.91371C14.3753 43.4887 1.32957 103.836 1.32957 103.836C7.36873 110.325 18.0493 117.953 23.8089 120.176C29.5549 122.393 54.1839 127.796 61.1997 128.05C66.9905 128.26 81.9975 128.399 88.4107 123.521L92.0086 106.438C92.0086 106.438 103.448 110.463 112.672 107.423C118.547 105.487 122.461 103.278 126.907 98.9756C132.192 93.8609 135.068 84.1994 137.104 74.5294C138.678 67.0597 137.534 60.3647 135.333 54.9683C133.132 49.572 130.743 46.4254 126.317 42.634C122.93 39.7325 117.849 37.2858 114.264 36.7292C111.381 36.2817 108.385 36.6694 108.385 36.6694M22.2887 5.91371C26.2163 4.04781 30.0609 4.17434 34.1899 4.54885C34.5142 4.57827 34.914 4.61318 35.3825 4.65409C40.8791 5.13409 55.8242 6.4392 69.0277 9.36101C79.3829 11.6525 85.6948 13.9815 90.9221 15.9103C92.2659 16.4062 93.5381 16.8756 94.7888 17.3111C100.905 19.4406 107.08 22.0877 110.931 24.5818M22.2887 5.91371C24.8122 8.98074 27.1855 9.92724 29.6562 10.9126C29.8097 10.9738 29.9635 11.0351 30.1178 11.0972C32.7558 12.1577 52.0235 18.8934 66.4141 21.7709C77.9018 24.0679 85.09 24.6347 91.1538 25.1128C91.9909 25.1788 92.8066 25.2431 93.6092 25.3101C100.226 25.862 106.884 25.4128 110.931 24.5818M108.385 36.6694C108.385 36.6694 109.937 29.3023 110.931 24.5818M108.385 36.6694L110.931 24.5818M117.283 44.7709C121.768 45.051 124.504 46.0986 128.03 48.8858C132.171 52.1597 133.694 55.3466 135.019 60.4566C136.346 65.5745 136.076 68.9215 135.332 74.156C134.587 79.3905 131.556 89.6874 127.755 94.9464C124.635 99.2632 121.689 101.124 116.659 102.877C112.279 104.404 107.755 103.6 104.902 102.757C101.968 101.89 97.4897 96.9519 95.8565 95.0612M117.283 44.7709C121.906 47.596 123.907 49.9688 125.612 54.7725C127.936 61.3213 128.375 65.8112 127.596 72.5268C126.816 79.2424 124.153 85.2391 119.137 91.1116C115.116 95.8192 110.891 98.2958 106.557 98.8978C100.91 99.6819 97.2428 96.5436 95.8565 95.0612M117.283 44.7709C115.712 45.318 114.339 45.6817 113.041 46.0258C110.644 46.6607 108.501 47.2284 105.839 48.7569L95.2329 94.3248M95.2329 94.3248C95.2329 94.3248 95.4614 94.6039 95.8565 95.0612M95.2329 94.3248C95.2329 94.3248 95.4434 94.6195 95.8565 95.0612" stroke="#040504" stroke-width="2.6" stroke-linejoin="round"/>
<path d="M127.942 48.8042C124.416 46.0171 121.68 44.9694 117.194 44.6894C121.817 47.5144 123.819 49.8873 125.524 54.691C127.847 61.2397 128.287 65.7297 127.507 72.4453C126.728 79.1608 124.065 85.1575 119.049 91.0301C115.028 95.7376 110.803 98.2142 106.468 98.8162C100.822 99.6004 97.1544 96.462 95.7682 94.9797C97.4013 96.8704 101.88 101.808 104.814 102.676C107.666 103.519 112.19 104.322 116.571 102.795C121.6 101.042 124.547 99.1817 127.667 94.8648C131.467 89.6059 134.499 79.309 135.243 74.0745C135.988 68.84 136.257 65.493 134.93 60.375C133.605 55.265 132.083 52.0781 127.942 48.8042Z" fill="#898582" stroke="#040504" stroke-width="2.6" stroke-linejoin="round"/>
<g filter="url(#filter0_d)">
<path d="M32.9713 66.6256L36.6804 67.4068C36.5736 67.8474 36.3309 68.3998 36.0586 68.6933L32.8467 68.0169L32.5552 69.4011L35.028 69.9218C34.3482 70.5506 33.5305 71.2345 32.5374 71.685L32.0789 73.862C33.8055 73.3274 38.0177 70.7199 38.6969 67.4946L38.9828 66.1373L33.3251 64.9458L32.9713 66.6256ZM42.4302 65.8949L40.5757 65.5044L38.2238 76.6719L40.0783 77.0625L41.301 71.257L42.9808 71.6108L43.3459 69.8772L41.6661 69.5234L42.4302 65.8949Z" fill="black"/>
<path d="M44.5267 68.9048L50.3456 70.1303L50.6796 68.5445L44.8606 67.319L44.5267 68.9048ZM48.247 70.1655L46.5698 73.5315L46.4059 69.7778L44.9411 69.4693L45.0752 73.7641L43.5701 73.4471L43.2389 75.0194L49.0579 76.2449L49.389 74.6726L47.8436 74.3471L49.685 70.4683L48.247 70.1655ZM49.8624 71.2917L49.4606 73.1999L50.576 73.4349L49.4014 79.0119L50.8394 79.3147L53.2224 67.9994L51.7845 67.6965L50.9779 71.5266L49.8624 71.2917ZM51.6323 79.4817L53.218 79.8157L55.6011 68.5003L54.0153 68.1663L51.6323 79.4817Z" fill="black"/>
<path d="M62.4595 74.1411L65.3219 74.7439L66.1625 70.7526L58.489 69.1366L57.6484 73.1279L60.7125 73.7732L60.52 74.687L56.0449 73.7445L55.7308 75.2362L66.2802 77.4579L66.5943 75.9663L62.267 75.0549L62.4595 74.1411ZM60.198 76.949C59.8762 77.3443 59.5274 77.734 59.1462 78.1449C58.4926 78.8494 57.5893 79.7398 56.5657 80.5348L58.6218 80.9678L60.6039 79.1537C60.7191 79.4727 60.8238 79.7754 60.9447 80.0675C61.1604 80.5761 61.3994 81.1738 61.5918 81.5933L63.5404 82.0036C63.039 80.9858 62.0814 79.0017 61.8482 77.3105L60.198 76.949ZM59.4451 72.0607L59.6998 70.8512L64.3899 71.8389L64.1352 73.0484L59.4451 72.0607Z" fill="black"/>
<path d="M68.4565 72.4708L68.1056 74.1372L71.8146 74.9184C71.4588 76.2749 69.5758 78.152 67.388 79.2772L66.9352 81.4274C68.0527 80.9189 69.0713 80.3475 70.01 79.689C71.5859 78.6034 73.2857 76.9965 73.6819 75.1151L73.9933 73.6369L68.4565 72.4708ZM76.7155 76.9048L77.4796 73.2764L75.7191 72.9056L73.3955 83.9388L75.156 84.3095L76.3504 78.6384L78.0302 78.9922L78.3953 77.2586L76.7155 76.9048Z" fill="black"/>
<path d="M32.7267 66.5741L32.6752 66.8187L32.9198 66.8702L36.3659 67.596C36.2664 67.8962 36.1188 68.2066 35.9624 68.4176L32.8983 67.7723L32.6536 67.7207L32.6021 67.9654L32.3106 69.3496L32.2591 69.5942L32.5037 69.6457L34.4959 70.0653C33.9031 70.5851 33.2238 71.0991 32.4341 71.4573L32.3188 71.5096L32.2928 71.6335L31.8343 73.8105L31.7466 74.2266L32.1528 74.1009C33.0543 73.8217 34.5674 73.0174 35.9402 71.8798C37.3102 70.7445 38.5847 69.2408 38.9416 67.5461L39.2274 66.1888L39.279 65.9442L39.0343 65.8927L33.3766 64.7011L33.132 64.6496L33.0805 64.8943L32.7267 66.5741ZM42.6749 65.9465L42.7264 65.7018L42.4818 65.6503L40.6272 65.2597L40.3826 65.2082L40.3311 65.4528L37.9792 76.6204L37.9277 76.865L38.1723 76.9166L40.0268 77.3071L40.2715 77.3586L40.323 77.114L41.4941 71.5531L42.9293 71.8554L43.1739 71.9069L43.2255 71.6623L43.5906 69.9287L43.6421 69.684L43.3974 69.6325L41.9622 69.3303L42.6749 65.9465ZM44.282 68.8533L44.2305 69.0979L44.4751 69.1494L44.6824 69.1931L44.6912 69.4771L44.8154 73.4539L43.6216 73.2024L43.3769 73.1509L43.3254 73.3956L42.9943 74.9679L42.9428 75.2125L43.1874 75.264L49.0064 76.4895L49.251 76.541L49.3025 76.2964L49.6336 74.7241L49.6852 74.4794L49.4405 74.4279L48.2054 74.1678L49.6358 71.1549L49.6178 71.2401L49.2159 73.1484L49.1644 73.3931L49.409 73.4446L50.2798 73.628L49.1568 78.9604L49.1053 79.205L49.3499 79.2565L50.7879 79.5594L51.0325 79.6109L51.084 79.3663L53.467 68.0509L53.5186 67.8063L53.2739 67.7547L51.836 67.4519L51.5914 67.4004L51.5398 67.645L50.7847 71.2304L49.914 71.047L49.7076 71.0036L49.9108 70.5755L50.0322 70.3198L50.2941 70.3749L50.5387 70.4264L50.5903 70.1818L50.9242 68.596L50.9757 68.3514L50.7311 68.2999L44.9122 67.0744L44.6675 67.0229L44.616 67.2675L44.282 68.8533ZM46.6557 69.7669L46.6487 69.6072L48.0942 69.9116L48.0233 70.054L46.7773 72.5543L46.6557 69.7669ZM51.3876 79.4302L51.3361 79.6748L51.5807 79.7264L53.1665 80.0603L53.4111 80.1118L53.4627 79.8672L55.8457 68.5518L55.8972 68.3072L55.6526 68.2557L54.0668 67.9217L53.8222 67.8702L53.7707 68.1148L51.3876 79.4302ZM57.5969 73.3725L60.4163 73.9663L60.3269 74.3908L56.0964 73.4999L55.8518 73.4484L55.8003 73.693L55.4861 75.1847L55.4346 75.4293L55.6793 75.4809L66.2286 77.7026L66.4733 77.7541L66.5248 77.5095L66.8389 76.0178L66.8905 75.7731L66.6458 75.7216L62.5632 74.8618L62.6526 74.4372L65.2704 74.9886L65.5151 75.0401L65.5666 74.7954L66.4071 70.8042L66.4587 70.5595L66.214 70.508L58.5405 68.892L58.2959 68.8404L58.2444 69.0851L57.4038 73.0764L57.3523 73.321L57.5969 73.3725ZM60.2515 76.7047L60.1013 76.6718L60.0041 76.7911C59.6872 77.1805 59.3425 77.5658 58.9629 77.9749C58.3151 78.6731 57.4219 79.5533 56.4124 80.3373L55.9863 80.6682L56.5142 80.7794L58.5703 81.2124L58.6959 81.2389L58.7906 81.1522L60.4956 79.5917C60.5656 79.7854 60.6365 79.9766 60.7137 80.1632L60.7146 80.1652C60.7846 80.3303 60.8581 80.5072 60.932 80.6854C61.0822 81.047 61.2345 81.4138 61.3646 81.6975L61.4171 81.8119L61.5403 81.8379L63.4889 82.2483L63.9918 82.3542L63.7647 81.8932C63.2601 80.869 62.3227 78.9208 62.0958 77.2763L62.072 77.1036L61.9017 77.0663L60.2515 76.7047ZM68.508 72.2262L68.2634 72.1747L68.2119 72.4193L67.8609 74.0857L67.8094 74.3303L68.054 74.3818L71.4905 75.1056C71.2696 75.6719 70.787 76.3402 70.1126 77.0067C69.3418 77.7685 68.3448 78.504 67.2736 79.0549L67.1679 79.1093L67.1434 79.2257L66.6905 81.3759L66.5886 81.8597L67.0387 81.6549C68.1682 81.141 69.2001 80.5624 70.1527 79.8943C71.7374 78.8025 73.5093 77.148 73.9266 75.1666L74.2379 73.6884L74.2894 73.4437L74.0448 73.3922L68.508 72.2262ZM75.4006 84.3611L76.5435 78.9346L77.9787 79.2368L78.2233 79.2883L78.2748 79.0437L78.6399 77.3101L78.6915 77.0655L78.4468 77.014L77.0116 76.7117L77.7242 73.3279L77.7758 73.0833L77.5311 73.0317L75.7707 72.661L75.526 72.6095L75.4745 72.8541L73.1509 83.8873L73.0994 84.1319L73.344 84.1834L75.1045 84.5542L75.3491 84.6057L75.4006 84.3611ZM63.9421 72.7523L59.7412 71.8676L59.8929 71.1474L64.0938 72.0321L63.9421 72.7523Z" stroke="#EEEEED" stroke-width="0.5"/>
</g>
<g filter="url(#filter1_d)">
<path d="M106.83 8.75825C107.847 7.90662 109.399 8.59032 109.456 9.9152L109.972 21.7584C109.994 22.2846 110.275 22.7657 110.721 23.0451L120.769 29.3349C121.893 30.0385 121.723 31.7257 120.48 32.1899L109.376 36.3396C108.883 36.5239 108.512 36.9392 108.384 37.45L105.507 48.9501C105.185 50.2366 103.528 50.5956 102.703 49.5576L95.3246 40.279C94.9969 39.8669 94.4873 39.6424 93.9619 39.6787L82.1357 40.4964C80.8127 40.5878 79.9591 39.1226 80.6913 38.0169L87.2358 28.1327C87.5265 27.6936 87.5826 27.1396 87.3857 26.6511L82.9535 15.6564C82.4577 14.4265 83.5875 13.1619 84.8653 13.5165L96.2881 16.6863C96.7955 16.8271 97.3398 16.7092 97.7434 16.371L106.83 8.75825Z" fill="#FFD142"/>
<path d="M106.83 8.75825C107.847 7.90662 109.399 8.59032 109.456 9.9152L109.972 21.7584C109.994 22.2846 110.275 22.7657 110.721 23.0451L120.769 29.3349C121.893 30.0385 121.723 31.7257 120.48 32.1899L109.376 36.3396C108.883 36.5239 108.512 36.9392 108.384 37.45L105.507 48.9501C105.185 50.2366 103.528 50.5956 102.703 49.5576L95.3246 40.279C94.9969 39.8669 94.4873 39.6424 93.9619 39.6787L82.1357 40.4964C80.8127 40.5878 79.9591 39.1226 80.6913 38.0169L87.2358 28.1327C87.5265 27.6936 87.5826 27.1396 87.3857 26.6511L82.9535 15.6564C82.4577 14.4265 83.5875 13.1619 84.8653 13.5165L96.2881 16.6863C96.7955 16.8271 97.3398 16.7092 97.7434 16.371L106.83 8.75825Z" fill="url(#paint2_linear)" fill-opacity="0.8"/>
<path d="M107.665 9.75476C107.856 9.59508 108.147 9.72328 108.158 9.97169L108.673 21.8149C108.714 22.7685 109.222 23.6406 110.031 24.1471L120.08 30.4368C120.29 30.5687 120.258 30.8851 120.025 30.9721L108.921 35.1218C108.027 35.4559 107.354 36.2086 107.123 37.1346L104.246 48.6346C104.186 48.8759 103.875 48.9432 103.72 48.7485L96.3421 39.4699C95.7481 38.7229 94.8244 38.3159 93.8722 38.3818L93.9619 39.6787L93.8722 38.3818L82.046 39.1995C81.798 39.2166 81.6379 38.9419 81.7752 38.7345L88.3197 28.8504C88.8467 28.0545 88.9483 27.0504 88.5914 26.1651L84.1592 15.1704C84.0663 14.9398 84.2781 14.7026 84.5177 14.7691L95.9405 17.939C96.8602 18.1942 97.8466 17.9805 98.5783 17.3676L107.665 9.75476L106.83 8.75825L107.665 9.75476Z" stroke="#040504" stroke-width="2.6" stroke-linejoin="round"/>
</g>
<defs>
<filter id="filter0_d" x="23.4144" y="64.3535" width="55.5732" height="28.5484" filterUnits="userSpaceOnUse" color-interpolation-filters="sRGB">
<feFlood flood-opacity="0" result="BackgroundImageFix"/>
<feColorMatrix in="SourceAlpha" type="matrix" values="0 0 0 0 0 0 0 0 0 0 0 0 0 0 0 0 0 0 127 0" result="hardAlpha"/>
<feOffset dx="-4" dy="4"/>
<feGaussianBlur stdDeviation="2"/>
<feComposite in2="hardAlpha" operator="out"/>
<feColorMatrix type="matrix" values="0 0 0 0 0 0 0 0 0 0 0 0 0 0 0 0 0 0 0.2 0"/>
<feBlend mode="normal" in2="BackgroundImageFix" result="effect1_dropShadow"/>
<feBlend mode="normal" in="SourceGraphic" in2="effect1_dropShadow" result="shape"/>
</filter>
<filter id="filter1_d" x="72.422" y="0.38208" width="57.0986" height="57.7806" filterUnits="userSpaceOnUse" color-interpolation-filters="sRGB">
<feFlood flood-opacity="0" result="BackgroundImageFix"/>
<feColorMatrix in="SourceAlpha" type="matrix" values="0 0 0 0 0 0 0 0 0 0 0 0 0 0 0 0 0 0 127 0" result="hardAlpha"/>
<feOffset/>
<feGaussianBlur stdDeviation="4"/>
<feComposite in2="hardAlpha" operator="out"/>
<feColorMatrix type="matrix" values="0 0 0 0 0 0 0 0 0 0 0 0 0 0 0 0 0 0 0.3 0"/>
<feBlend mode="normal" in2="BackgroundImageFix" result="effect1_dropShadow"/>
<feBlend mode="normal" in="SourceGraphic" in2="effect1_dropShadow" result="shape"/>
</filter>
<linearGradient id="paint0_linear" x1="28.6139" y1="66.9902" x2="84.3863" y2="77.8943" gradientUnits="userSpaceOnUse">
<stop/>
<stop offset="1" stop-opacity="0"/>
</linearGradient>
<linearGradient id="paint1_linear" x1="126.433" y1="79.1685" x2="28.6798" y2="55.6407" gradientUnits="userSpaceOnUse">
<stop stop-color="white"/>
<stop offset="1" stop-color="white" stop-opacity="0"/>
</linearGradient>
<linearGradient id="paint2_linear" x1="109.867" y1="1.60757" x2="97.1523" y2="37.7565" gradientUnits="userSpaceOnUse">
<stop stop-color="#560C0C"/>
<stop offset="1" stop-opacity="0"/>
</linearGradient>
</defs>
</svg>
