<svg width="201" height="144" viewBox="0 0 201 144" fill="none" xmlns="http://www.w3.org/2000/svg">
  <!-- ㅂ ( 방 ) -->
  <path class="later-dark" fill-rule="evenodd" clip-rule="evenodd" d="M61.7021 83.8298V116.809L95.5319 114.681V81.4894L82.9787 82.1277V89.5745L74.8936 90V82.9787L61.7021 83.8298ZM74.6809 105.957V100.213L82.5532 99.7872V105.532L74.6809 105.957Z" fill="#414141"/>
  <!-- ㅏ ( 방 ) -->
  <path class="later-dark" d="M102.128 116.809V77.8723L113.83 77.0213V91.0638L122.34 90.6383V102.979L113.83 103.617V116.17L102.128 116.809Z" fill="#414141"/>
  <!-- ㅁ ( 문 ) -->
  <path class="later-dark" fill-rule="evenodd" clip-rule="evenodd" d="M6.38293 80.4255V106.17L51.2765 102.979V77.4468L6.38293 80.4255ZM17.234 95.5319V90L40.851 88.2979V93.8298L17.234 95.5319Z" fill="#414141"/>
  <!-- ㄱ ( 구 ) -->
  <path class="later-dark" d="M126.809 93.1915V81.7021L174.681 78.2979V90.8511C174.681 90.8511 174.681 92.3404 173.617 97.234C172.553 102.128 170.851 106.383 170.851 106.383L157.66 106.809C157.66 106.809 160.213 101.915 160.851 97.234C161.489 92.5532 161.489 90.8511 161.489 90.8511L126.809 93.1915Z" fill="#414141"/>
  <!-- ㅜ ( 문 ) -->
  <path class="later-dark" d="M0 120.638V109.787L57.4468 105.957V116.596L35.9574 118.085V126.596L23.8298 127.447V118.936L0 120.638Z" fill="#414141"/>
  <!-- 문 ( ㄴ ) -->
  <path class="later-dark" d="M17.6596 122.34L5.53198 123.191V143.83L53.8299 140.426V128.511L17.6596 131.064V122.34Z" fill="#414141"/>
  <!-- ㅜ ( 구 ) -->
  <path class="later-dark" d="M122.553 124.681V112.979L180.638 108.723V120.638L158.085 122.128V142.34L145.106 142.766V123.191L122.553 124.681Z" fill="#414141"/>
  <!-- ㅇ ( 방 ) -->
  <path class="later-dark" fill-rule="evenodd" clip-rule="evenodd" d="M77.234 121.277C74.8936 121.489 71.9149 122.766 70.6383 124.043C68.6142 126.067 67.4468 127.777 67.4468 130.638V135.957C67.4468 138.151 68.3596 139.398 69.7872 141.064C71.0638 142.553 73.1915 143.83 75.3191 143.617L107.021 141.489C109.362 141.064 110.917 140.18 112.553 138.298C114.042 136.585 114.668 135.237 114.894 132.979C115.106 130.851 115.385 127.447 114.894 125.319C114.403 123.191 114.043 122.766 112.553 121.277C111.064 119.787 108.936 119.149 106.596 119.149L77.234 121.277ZM101.702 129.362L81.7021 130.638C80.851 130.851 80 131.277 80.2127 132.553C80.4255 133.83 81.0638 133.83 81.7021 133.83L101.702 132.553C101.702 132.553 103.092 132.553 102.979 130.851C102.879 129.362 101.702 129.362 101.702 129.362Z" fill="#414141"/>
  <!-- ㅁ ( 림 ) -->
  <path fill-rule="evenodd" clip-rule="evenodd" d="M106.17 47.0918V69.033L152.766 65.9574V44.2289L106.17 47.0918ZM115.957 59.4322V55.8152L142.979 54.113V57.7301L115.957 59.4322Z" fill="#5EBEBB"/>
  <!-- ㄹ ( 림 ) -->
  <path d="M137.872 28.529L111.489 30.3439V33.1915L137.872 31.0638V40.8511L101.702 43.617C101.619 33.8212 101.785 31.0575 101.702 21.2617L127.872 19.1489V16.2225L101.489 18.1032V7.30895L137.872 4.68085V28.529Z" fill="#5EBEBB"/>
  <!-- ㅣ ( 림 ) -->
  <path d="M141.702 43.4043V0.874066L153.192 0V42.5302L141.702 43.4043Z" fill="#5EBEBB"/>
  <!-- ㅡ ( 드 ) -->
  <path d="M97.234 48.5106L27.234 52.8247V65.796L97.234 61.482V48.5106Z" fill="#5EBEBB"/>
  <!-- ㄷ ( 드 ) -->
  <path d="M85.7446 9.78724L37.0212 13.2523L37.2644 48.7538L85.9878 45.7751V33.617L49.9088 35.7447V24.8936L85.7446 22.1885V9.78724Z" fill="#5EBEBB"/>

  <!-- 컵 정의 시작 -->
  <path fill-rule="evenodd" clip-rule="evenodd" d="M188.192 42.81C183.752 58.5353 176.748 83.8571 176.748 83.8571C173.19 85.1101 167.657 85.8751 165.048 85.5751C162.444 85.2759 152.094 82.4469 149.399 81.1567C147.175 80.0918 141.492 77.1795 140.038 74.0744L142.057 66.9248C142.057 66.9248 136.95 66.1822 134.074 63.2143C132.242 61.3239 131.204 59.718 130.378 57.2185C129.396 54.2467 130.221 50.0371 131.364 45.9902C132.246 42.8641 134 40.5666 135.895 38.9675C137.791 37.3685 139.313 36.6544 141.73 36.0998C143.58 35.6753 145.978 35.7568 147.44 36.2553C148.614 36.6561 149.667 37.394 149.667 37.394L151.095 32.3354C152.456 33.4479 154.877 34.9326 157.48 36.0316C157.796 36.1649 158.116 36.3018 158.444 36.4423C160.824 37.4599 163.645 38.6663 168.429 40.0699C174.421 41.8281 183.014 43.0956 184.218 43.217C184.288 43.2241 184.358 43.2314 184.428 43.2386C185.554 43.3553 186.635 43.4674 188.192 42.81ZM146.064 40.0008C145.642 39.6146 145.197 39.2062 144.713 38.6898C142.967 37.9093 141.729 37.7636 139.85 38.1177C137.642 38.5336 136.439 39.4339 134.93 41.0981C133.418 42.7649 132.859 44.0797 132.106 46.1996C131.352 48.3196 130.461 52.7993 130.854 55.5322C131.177 57.7755 131.92 59.0589 133.47 60.7131C134.819 62.154 136.683 62.7449 137.924 62.9905C139.202 63.2433 141.865 62.2669 142.854 61.8769C143.093 61.7825 143.235 61.7225 143.235 61.7225L148.239 42.4527C147.537 41.3508 146.842 40.7135 146.064 40.0008Z" fill="#EEEEED"/>
  <path fill-rule="evenodd" clip-rule="evenodd" d="M188.192 42.81C183.752 58.5353 176.748 83.8571 176.748 83.8571C173.19 85.1101 167.657 85.8751 165.048 85.5751C162.444 85.2759 152.094 82.4469 149.399 81.1567C147.175 80.0918 141.492 77.1795 140.038 74.0744L142.057 66.9248C142.057 66.9248 136.95 66.1822 134.074 63.2143C132.242 61.3239 131.204 59.718 130.378 57.2185C129.396 54.2467 130.221 50.0371 131.364 45.9902C132.246 42.8641 134 40.5666 135.895 38.9675C137.791 37.3685 139.313 36.6544 141.73 36.0998C143.58 35.6753 145.978 35.7568 147.44 36.2553C148.614 36.6561 149.667 37.394 149.667 37.394L151.095 32.3354C152.456 33.4479 154.877 34.9326 157.48 36.0316C157.796 36.1649 158.116 36.3018 158.444 36.4423C160.824 37.4599 163.645 38.6663 168.429 40.0699C174.421 41.8281 183.014 43.0956 184.218 43.217C184.288 43.2241 184.358 43.2314 184.428 43.2386C185.554 43.3553 186.635 43.4674 188.192 42.81ZM146.064 40.0008C145.642 39.6146 145.197 39.2062 144.713 38.6898C142.967 37.9093 141.729 37.7636 139.85 38.1177C137.642 38.5336 136.439 39.4339 134.93 41.0981C133.418 42.7649 132.859 44.0797 132.106 46.1996C131.352 48.3196 130.461 52.7993 130.854 55.5322C131.177 57.7755 131.92 59.0589 133.47 60.7131C134.819 62.154 136.683 62.7449 137.924 62.9905C139.202 63.2433 141.865 62.2669 142.854 61.8769C143.093 61.7825 143.235 61.7225 143.235 61.7225L148.239 42.4527C147.537 41.3508 146.842 40.7135 146.064 40.0008Z" fill="url(#paint0_linear)" fill-opacity="0.3"/>
  <path fill-rule="evenodd" clip-rule="evenodd" d="M188.192 42.81C183.752 58.5353 176.748 83.8571 176.748 83.8571C173.19 85.1101 167.657 85.8751 165.048 85.5751C162.444 85.2759 152.094 82.4469 149.399 81.1567C147.175 80.0918 141.492 77.1795 140.038 74.0744L142.057 66.9248C142.057 66.9248 136.95 66.1822 134.074 63.2143C132.242 61.3239 131.204 59.718 130.378 57.2185C129.396 54.2467 130.221 50.0371 131.364 45.9902C132.246 42.8641 134 40.5666 135.895 38.9675C137.791 37.3685 139.313 36.6544 141.73 36.0998C143.58 35.6753 145.978 35.7568 147.44 36.2553C148.614 36.6561 149.667 37.394 149.667 37.394L151.095 32.3354C152.456 33.4479 154.877 34.9326 157.48 36.0316C157.796 36.1649 158.116 36.3018 158.444 36.4423C160.824 37.4599 163.645 38.6663 168.429 40.0699C174.421 41.8281 183.014 43.0956 184.218 43.217C184.288 43.2241 184.358 43.2314 184.428 43.2386C185.554 43.3553 186.635 43.4674 188.192 42.81ZM146.064 40.0008C145.642 39.6146 145.197 39.2062 144.713 38.6898C142.967 37.9093 141.729 37.7636 139.85 38.1177C137.642 38.5336 136.439 39.4339 134.93 41.0981C133.418 42.7649 132.859 44.0797 132.106 46.1996C131.352 48.3196 130.461 52.7993 130.854 55.5322C131.177 57.7755 131.92 59.0589 133.47 60.7131C134.819 62.154 136.683 62.7449 137.924 62.9905C139.202 63.2433 141.865 62.2669 142.854 61.8769C143.093 61.7825 143.235 61.7225 143.235 61.7225L148.239 42.4527C147.537 41.3508 146.842 40.7135 146.064 40.0008Z" fill="url(#paint1_linear)" fill-opacity="0.5"/>
  <path d="M188.192 42.81C183.752 58.5353 176.748 83.8571 176.748 83.8571C173.19 85.1101 167.657 85.8751 165.048 85.5751C162.444 85.2759 152.094 82.4469 149.399 81.1567C147.175 80.0918 141.492 77.1795 140.038 74.0744L142.057 66.9248C142.057 66.9248 136.95 66.1822 134.074 63.2143C132.242 61.3239 131.204 59.718 130.378 57.2185C129.396 54.2467 130.221 50.0371 131.364 45.9902C132.246 42.8641 134 40.5666 135.895 38.9675C137.791 37.3685 139.313 36.6544 141.73 36.0998C143.58 35.6753 145.978 35.7568 147.44 36.2553C148.614 36.6561 149.667 37.394 149.667 37.394M188.192 42.81C187.081 41.3308 185.607 40.6191 183.976 39.9445C183.848 39.8916 183.691 39.8258 183.506 39.7486C181.34 38.8437 175.449 36.3833 169.895 34.8763C165.54 33.6943 162.701 33.3253 160.35 33.0196C159.745 32.941 159.173 32.8667 158.615 32.7837C155.89 32.3782 153.039 32.156 151.095 32.3354M188.192 42.81C186.635 43.4674 185.554 43.3553 184.428 43.2386C184.358 43.2314 184.288 43.2241 184.218 43.217C183.014 43.0956 174.421 41.8281 168.429 40.0699C163.645 38.6663 160.824 37.4599 158.444 36.4423C158.116 36.3018 157.796 36.1649 157.48 36.0316C154.877 34.9326 152.456 33.4479 151.095 32.3354M149.667 37.394C149.667 37.394 150.537 34.3109 151.095 32.3354M149.667 37.394L151.095 32.3354M144.713 38.6898C142.967 37.9093 141.729 37.7636 139.85 38.1177C137.642 38.5336 136.439 39.4339 134.93 41.0981C133.418 42.7649 132.859 44.0797 132.106 46.1996C131.352 48.3196 130.461 52.7993 130.854 55.5322C131.177 57.7755 131.92 59.0589 133.47 60.7131C134.819 62.154 136.683 62.7449 137.924 62.9905C139.202 63.2433 141.865 62.2669 142.854 61.8769M144.713 38.6898C142.413 38.8414 141.189 39.3403 139.598 40.8141C137.428 42.8232 136.376 44.4287 135.343 47.1138C134.31 49.7989 134.129 52.5851 134.86 55.7893C135.445 58.358 136.548 60.1259 138.063 61.2091C140.037 62.6201 142.039 62.1617 142.854 61.8769M144.713 38.6898C145.197 39.2062 145.642 39.6146 146.064 40.0008C146.842 40.7135 147.537 41.3508 148.239 42.4527L143.235 61.7225M143.235 61.7225C143.235 61.7225 143.093 61.7825 142.854 61.8769M143.235 61.7225C143.235 61.7225 143.097 61.792 142.854 61.8769" stroke="#040504" stroke-width="0.9" stroke-linejoin="round"/>
  <g filter="url(#filter0_d)">
    <path d="M188.366 42.7998C186.809 43.4572 185.727 43.3451 184.601 43.2284C184.531 43.2212 184.461 43.2139 184.391 43.2068C183.187 43.0854 174.595 41.8179 168.602 40.0597C163.819 38.6561 160.998 37.4497 158.618 36.4321C158.289 36.2916 157.969 36.1547 157.653 36.0214C155.051 34.9224 152.63 33.4377 151.269 32.3251" stroke="#040504" stroke-width="0.9" stroke-linejoin="round"/>
  </g>
    <path d="M139.899 38.1045C141.778 37.7504 143.017 37.8961 144.762 38.6766C142.462 38.8282 141.239 39.327 139.647 40.8008C137.478 42.81 136.425 44.4154 135.393 47.1006C134.36 49.7857 134.179 52.5718 134.909 55.7761C135.495 58.3447 136.598 60.1127 138.113 61.1959C140.086 62.6069 142.088 62.1485 142.904 61.8636C141.914 62.2536 139.251 63.2301 137.974 62.9773C136.732 62.7316 134.868 62.1408 133.519 60.6999C131.97 59.0456 131.227 57.7623 130.904 55.519C130.51 52.7861 131.402 48.3064 132.155 46.1864C132.908 44.0664 133.468 42.7517 134.979 41.0849C136.488 39.4207 137.691 38.5203 139.899 38.1045Z" fill="#898582" stroke="#040504" stroke-width="0.9" stroke-linejoin="round"/>
    <path d="M158.75 32.8218C156.025 32.4163 153.174 32.1941 151.23 32.3734C152.591 33.486 155.012 34.9707 157.615 36.0697C160.218 37.1687 163.12 38.5106 168.564 40.108C174.556 41.8662 183.149 43.1337 184.352 43.2551C185.556 43.3765 186.673 43.5463 188.327 42.8481C187.215 41.3689 185.741 40.6571 184.111 39.9826C183.983 39.9297 183.826 39.8638 183.641 39.7867C181.474 38.8818 175.584 36.4214 170.03 34.9144C165.675 33.7324 162.836 33.3634 160.484 33.0577L160.484 33.0577C159.88 32.9791 159.308 32.9047 158.75 32.8218Z" fill="#9B9997" stroke="#040504" stroke-width="0.9" stroke-linejoin="round"/>
    <path d="M186.459 43.2792C193.792 43.2792 196.131 25.9679 196.131 25.9679C196.131 25.9679 202.094 18.714 199.214 19.1695C197.79 19.3949 197.282 20.3335 196.131 21.202C193.148 23.4521 193.153 29.1023 189.543 28.1406C188.119 27.7614 186.459 24.6267 186.459 25.9679V29.4021C186.459 30.7433 182.22 35.556 178.609 34.7287C175.795 34.084 176.514 29.4518 173.633 29.2619C170.562 29.0595 170.575 36.3459 167.956 34.7287C166.081 33.5706 168.758 29.2884 166.554 29.2619C164.344 29.2354 165.082 34.7287 165.082 34.7287C165.082 34.7287 163.627 38.1611 165.082 38.7236C176.506 43.139 180.151 43.2792 186.459 43.2792Z" fill="#5E3200" stroke="black" stroke-width="0.9"/>
  <g filter="url(#filter1_d)">
    <path d="M158.943 31.3465C158.766 30.9173 158.174 30.8771 157.94 31.2784L156.321 34.0672C156.228 34.2266 156.063 34.3302 155.879 34.3443L152.663 34.5908C152.201 34.6263 151.979 35.1771 152.289 35.5228L154.441 37.9252C154.564 38.0625 154.611 38.2515 154.568 38.4306L153.809 41.5651C153.7 42.0162 154.155 42.3968 154.579 42.2091L157.529 40.9051C157.698 40.8306 157.892 40.8438 158.049 40.9404L160.796 42.631C161.191 42.8744 161.694 42.5588 161.646 42.0971L161.318 38.8888C161.299 38.7054 161.371 38.5246 161.512 38.4052L163.968 36.3156C164.322 36.0148 164.177 35.4393 163.723 35.3416L160.571 34.6627C160.39 34.6239 160.241 34.499 160.171 34.3285L158.943 31.3465Z" fill="#FFD142"/>
    <path d="M158.943 31.3465C158.766 30.9173 158.174 30.8771 157.94 31.2784L156.321 34.0672C156.228 34.2266 156.063 34.3302 155.879 34.3443L152.663 34.5908C152.201 34.6263 151.979 35.1771 152.289 35.5228L154.441 37.9252C154.564 38.0625 154.611 38.2515 154.568 38.4306L153.809 41.5651C153.7 42.0162 154.155 42.3968 154.579 42.2091L157.529 40.9051C157.698 40.8306 157.892 40.8438 158.049 40.9404L160.796 42.631C161.191 42.8744 161.694 42.5588 161.646 42.0971L161.318 38.8888C161.299 38.7054 161.371 38.5246 161.512 38.4052L163.968 36.3156C164.322 36.0148 164.177 35.4393 163.723 35.3416L160.571 34.6627C160.39 34.6239 160.241 34.499 160.171 34.3285L158.943 31.3465Z" fill="url(#paint2_linear)" fill-opacity="0.8"/>
    <path d="M158.33 31.5045L156.71 34.2932C156.543 34.5807 156.245 34.7675 155.914 34.793L152.698 35.0395C152.607 35.0465 152.564 35.1547 152.624 35.2226L154.776 37.625C154.998 37.8726 155.084 38.2135 155.005 38.5366L154.246 41.671C154.225 41.7596 154.314 41.8344 154.398 41.7975L157.347 40.4935C157.651 40.3591 158.002 40.3829 158.285 40.5572L161.032 42.2478C161.109 42.2956 161.208 42.2336 161.199 42.1429L160.87 38.9346C160.836 38.604 160.967 38.2778 161.22 38.0624L163.677 35.9728C163.746 35.9137 163.718 35.8007 163.629 35.7815L160.476 35.1026C160.151 35.0327 159.881 34.8073 159.755 34.4999L158.526 31.5178C158.492 31.4335 158.375 31.4256 158.33 31.5045Z" stroke="#040504" stroke-width="0.9" stroke-linejoin="round"/>
  </g>
  <circle r="1.24172" transform="matrix(-1 0 0 1 185.267 22.6738)" fill="#5D3200" stroke="black" stroke-width="0.32"/>
  <g filter="url(#filter2_d)">
    <path d="M140.006 73.9564L141.969 67.088" stroke="#040504" stroke-width="0.9" stroke-linejoin="round"/>
  </g>
  <g filter="url(#filter3_d)">
    <path d="M149.358 81.1789C147.134 80.114 141.451 77.2016 139.997 74.0966" stroke="#040504" stroke-width="0.9" stroke-linejoin="round"/>
  </g>
    <path d="M148.277 42.3475C148.206 42.2073 147.319 41.1093 146.875 40.8056L147.926 42.2774C147.996 42.3475 148.066 42.5577 148.066 42.6979C148.066 42.9783 147.879 43.9828 147.786 44.4501L148.277 42.768C148.347 42.5577 148.347 42.4877 148.277 42.3475Z" fill="white"/>
    <path d="M143.37 61.6913L143.861 59.2383L143.09 61.5511C143.09 61.5511 141.688 62.1118 141.408 62.1118C141.127 62.1118 140.525 62.0698 139.796 61.9015C139.067 61.7333 138.09 61.224 137.693 60.9904C137.95 61.1773 138.604 61.6212 139.165 61.9015C139.726 62.1819 140.427 62.3454 140.707 62.3922C140.707 62.3922 139.305 62.9528 138.604 62.9528C137.904 62.9528 136.642 62.7426 136.642 62.7426C137.273 63.093 138.114 63.2332 138.604 63.2332C139.168 63.2332 140.777 62.7251 141.268 62.5323C141.758 62.3396 143.37 61.6913 143.37 61.6913Z" fill="white"/>
  <g filter="url(#filter4_d)">
    <path d="M155.835 53.6248L157.403 54.005C157.352 54.191 157.241 54.4228 157.122 54.5441L155.764 54.2149L155.622 54.7999L156.667 55.0533C156.37 55.312 156.013 55.5923 155.585 55.7711L155.362 56.6911C156.103 56.4861 157.929 55.4314 158.259 54.0684L158.398 53.4948L156.007 52.9148L155.835 53.6248ZM159.868 53.4363L159.084 53.2462L157.939 57.9657L158.723 58.1558L159.318 55.7023L160.028 55.8745L160.206 55.1419L159.496 54.9697L159.868 53.4363Z" fill="black"/>
    <path d="M160.721 54.7436L163.18 55.34L163.342 54.6699L160.883 54.0734L160.721 54.7436ZM162.287 55.3279L161.53 56.7379L161.509 55.1392L160.89 54.989L160.891 56.8175L160.255 56.6632L160.094 57.3277L162.553 57.9241L162.714 57.2597L162.061 57.1012L162.894 55.4753L162.287 55.3279ZM162.959 55.8278L162.764 56.6342L163.235 56.7486L162.663 59.1055L163.271 59.2529L164.431 54.4709L163.823 54.3235L163.431 55.9421L162.959 55.8278ZM163.606 59.3342L164.276 59.4967L165.436 54.7147L164.766 54.5521L163.606 59.3342Z" fill="black"/>
    <path d="M168.28 57.2026L169.49 57.496L169.899 55.8092L166.656 55.0226L166.247 56.7094L167.542 57.0235L167.448 57.4097L165.557 56.951L165.404 57.5814L169.863 58.6627L170.016 58.0323L168.187 57.5888L168.28 57.2026ZM167.282 58.3676C167.14 58.5316 166.987 58.6929 166.819 58.8627C166.532 59.1539 166.137 59.5209 165.691 59.8458L166.56 60.0566L167.426 59.3106C167.471 59.4478 167.512 59.5779 167.56 59.7037C167.645 59.9228 167.739 60.1801 167.815 60.361L168.639 60.5608C168.438 60.1213 168.057 59.2651 167.979 58.5427L167.282 58.3676ZM167.025 56.2787L167.149 55.7676L169.131 56.2483L169.007 56.7595L167.025 56.2787Z" fill="black"/>
    <path d="M170.853 56.5697L170.682 57.2739L172.249 57.6541C172.081 58.2265 171.255 59.0006 170.31 59.4508L170.09 60.3595C170.572 60.1577 171.012 59.9278 171.42 59.6599C172.105 59.2185 172.848 58.557 173.041 57.7619L173.193 57.1372L170.853 56.5697ZM174.308 58.5624L174.68 57.0289L173.936 56.8485L172.805 61.5113L173.549 61.6917L174.131 59.295L174.841 59.4672L175.018 58.7346L174.308 58.5624Z" fill="black"/>
  </g>
  <defs>
    <filter id="filter0_d" x="141.23" y="26.8792" width="56.5181" height="32.063" filterUnits="userSpaceOnUse" color-interpolation-filters="sRGB">
      <feFlood flood-opacity="0" result="BackgroundImageFix"/>
      <feColorMatrix in="SourceAlpha" type="matrix" values="0 0 0 0 0 0 0 0 0 0 0 0 0 0 0 0 0 0 127 0" result="hardAlpha"/>
      <feOffset dy="4"/>
      <feGaussianBlur stdDeviation="4.5"/>
      <feComposite in2="hardAlpha" operator="out"/>
      <feColorMatrix type="matrix" values="0 0 0 0 0 0 0 0 0 0 0 0 0 0 0 0 0 0 0.8 0"/>
      <feBlend mode="normal" in2="BackgroundImageFix" result="effect1_dropShadow"/>
      <feBlend mode="normal" in="SourceGraphic" in2="effect1_dropShadow" result="shape"/>
    </filter>
    <filter id="filter1_d" x="143.674" y="22.5931" width="28.7975" height="28.3002" filterUnits="userSpaceOnUse" color-interpolation-filters="sRGB">
      <feFlood flood-opacity="0" result="BackgroundImageFix"/>
      <feColorMatrix in="SourceAlpha" type="matrix" values="0 0 0 0 0 0 0 0 0 0 0 0 0 0 0 0 0 0 127 0" result="hardAlpha"/>
      <feOffset/>
      <feGaussianBlur stdDeviation="4"/>
      <feComposite in2="hardAlpha" operator="out"/>
      <feColorMatrix type="matrix" values="0 0 0 0 0 0 0 0 0 0 0 0 0 0 0 0 0 0 0.3 0"/>
      <feBlend mode="normal" in2="BackgroundImageFix" result="effect1_dropShadow"/>
      <feBlend mode="normal" in="SourceGraphic" in2="effect1_dropShadow" result="shape"/>
    </filter>
    <filter id="filter2_d" x="128.573" y="58.9643" width="20.8278" height="25.1157" filterUnits="userSpaceOnUse" color-interpolation-filters="sRGB">
      <feFlood flood-opacity="0" result="BackgroundImageFix"/>
      <feColorMatrix in="SourceAlpha" type="matrix" values="0 0 0 0 0 0 0 0 0 0 0 0 0 0 0 0 0 0 127 0" result="hardAlpha"/>
      <feOffset dx="-2" dy="1"/>
      <feGaussianBlur stdDeviation="4.5"/>
      <feComposite in2="hardAlpha" operator="out"/>
      <feColorMatrix type="matrix" values="0 0 0 0 0 0 0 0 0 0 0 0 0 0 0 0 0 0 0.6 0"/>
      <feBlend mode="normal" in2="BackgroundImageFix" result="effect1_dropShadow"/>
      <feBlend mode="normal" in="SourceGraphic" in2="effect1_dropShadow" result="shape"/>
    </filter>
    <filter id="filter3_d" x="129.388" y="62.7208" width="30.2848" height="25.9057" filterUnits="userSpaceOnUse" color-interpolation-filters="sRGB">
      <feFlood flood-opacity="0" result="BackgroundImageFix"/>
      <feColorMatrix in="SourceAlpha" type="matrix" values="0 0 0 0 0 0 0 0 0 0 0 0 0 0 0 0 0 0 127 0" result="hardAlpha"/>
      <feOffset dy="-2"/>
      <feGaussianBlur stdDeviation="4.5"/>
      <feComposite in2="hardAlpha" operator="out"/>
      <feColorMatrix type="matrix" values="0 0 0 0 0 0 0 0 0 0 0 0 0 0 0 0 0 0 0.6 0"/>
      <feBlend mode="normal" in2="BackgroundImageFix" result="effect1_dropShadow"/>
      <feBlend mode="normal" in="SourceGraphic" in2="effect1_dropShadow" result="shape"/>
    </filter>
    <filter id="filter4_d" x="142.237" y="44.0512" width="37.6079" height="33.6397" filterUnits="userSpaceOnUse" color-interpolation-filters="sRGB">
      <feFlood flood-opacity="0" result="BackgroundImageFix"/>
      <feColorMatrix in="SourceAlpha" type="matrix" values="0 0 0 0 0 0 0 0 0 0 0 0 0 0 0 0 0 0 127 0" result="hardAlpha"/>
      <feOffset dx="-4" dy="4"/>
      <feGaussianBlur stdDeviation="4"/>
      <feComposite in2="hardAlpha" operator="out"/>
      <feColorMatrix type="matrix" values="0 0 0 0 0 0 0 0 0 0 0 0 0 0 0 0 0 0 0.2 0"/>
      <feBlend mode="normal" in2="BackgroundImageFix" result="effect1_dropShadow"/>
      <feBlend mode="normal" in="SourceGraphic" in2="effect1_dropShadow" result="shape"/>
    </filter>
    <linearGradient id="paint0_linear" x1="173.743" y1="64.5802" x2="150.568" y2="57.6725" gradientUnits="userSpaceOnUse">
      <stop/>
      <stop offset="1" stop-opacity="0"/>
    </linearGradient>
    <linearGradient id="paint1_linear" x1="134.469" y1="49.8467" x2="175.96" y2="60.2896" gradientUnits="userSpaceOnUse">
      <stop stop-color="white"/>
      <stop offset="1" stop-color="white" stop-opacity="0"/>
    </linearGradient>
    <linearGradient id="paint2_linear" x1="159.055" y1="28.9115" x2="157.443" y2="39.9851" gradientUnits="userSpaceOnUse">
      <stop stop-color="#560C0C"/>
      <stop offset="1" stop-opacity="0"/>
    </linearGradient>
  </defs>
</svg>
