<svg width="24" height="24" viewBox="0 0 24 24" fill="none" xmlns="http://www.w3.org/2000/svg">
<path d="M5.02326 1.98753C9.30799 -1.07295 14.5116 0.313092 14.5116 0.313092C14.5116 0.313092 11.3191 2.23256 9.48838 4.46512C7.6577 6.69768 7.22732 9.83603 7.25584 12.034C7.28437 14.232 7.81396 17.4419 9.48838 19.5349C11.1628 21.6279 14.5116 23.55 14.5116 23.55C14.5116 23.55 8.47676 24.109 4.35 21C1.88305 19.1415 0 15.6959 0 12.034C0 8.3721 1.11628 4.77819 5.02326 1.98753Z" fill="black"/>
<path d="M15.6755 4.85179L16.0669 6.05651C16.1138 6.20072 16.2482 6.29836 16.3998 6.29836H17.6665C17.7149 6.29836 17.7351 6.36034 17.6959 6.38881L16.6711 7.13337C16.5484 7.22249 16.4971 7.38047 16.5439 7.52468L16.9354 8.7294C16.9504 8.77546 16.8976 8.81377 16.8584 8.7853L15.8336 8.04074C15.711 7.95162 15.5449 7.95162 15.4222 8.04074L14.3974 8.7853C14.3582 8.81377 14.3055 8.77546 14.3205 8.7294L14.7119 7.52468C14.7588 7.38047 14.7074 7.22249 14.5847 7.13337L13.56 6.38881C13.5208 6.36034 13.5409 6.29836 13.5893 6.29836H14.8561C15.0077 6.29836 15.1421 6.20072 15.1889 6.05651L15.5804 4.85179C15.5953 4.80573 15.6605 4.80573 15.6755 4.85179Z" stroke="black" stroke-width="0.3"/>
<path d="M21.2568 7.08437L21.6483 8.28909C21.6951 8.4333 21.8295 8.53093 21.9811 8.53093H23.2479C23.2963 8.53093 23.3164 8.59291 23.2772 8.62138L22.2525 9.36594C22.1298 9.45507 22.0784 9.61305 22.1253 9.75725L22.5167 10.962C22.5317 11.008 22.479 11.0463 22.4398 11.0179L21.415 10.2733C21.2923 10.1842 21.1262 10.1842 21.0036 10.2733L19.9788 11.0179C19.9396 11.0463 19.8868 11.008 19.9018 10.962L20.2933 9.75725C20.3401 9.61305 20.2888 9.45507 20.1661 9.36594L19.1413 8.62138C19.1021 8.59291 19.1223 8.53093 19.1707 8.53093H20.4374C20.589 8.53093 20.7234 8.4333 20.7703 8.28909L21.1617 7.08437C21.1767 7.0383 21.2419 7.0383 21.2568 7.08437Z" stroke="black" stroke-width="0.3"/>
<path d="M17.908 10.4332L18.2995 11.6379C18.3463 11.7821 18.4807 11.8798 18.6323 11.8798H19.899C19.9475 11.8798 19.9676 11.9418 19.9284 11.9702L18.9036 12.7148C18.781 12.8039 18.7296 12.9619 18.7765 13.1061L19.1679 14.3108C19.1829 14.3569 19.1302 14.3952 19.091 14.3667L18.0662 13.6222C17.9435 13.533 17.7774 13.533 17.6547 13.6222L16.6299 14.3667C16.5908 14.3952 16.538 14.3569 16.553 14.3108L16.9444 13.1061C16.9913 12.9619 16.94 12.8039 16.8173 12.7148L15.7925 11.9702C15.7533 11.9418 15.7735 11.8798 15.8219 11.8798H17.0886C17.2402 11.8798 17.3746 11.7821 17.4215 11.6379L17.8129 10.4332C17.8279 10.3871 17.893 10.3872 17.908 10.4332Z" stroke="black" stroke-width="0.3"/>
</svg>
