<svg width="502" height="360" viewBox="0 0 502 360" fill="none" xmlns="http://www.w3.org/2000/svg">
  <!-- 드림 문방구 글자 부분 시작-->
   <!-- ㄷ ( 드 ) -->
  <path d="M214.362 24.4681L92.5532 33.1307L93.1611 121.884L214.97 114.438V84.0425L124.772 89.3617V62.234L214.362 55.4711V24.4681Z" fill="#5EBEBB"/>
  <!-- ㅡ ( 드 ) -->
  <path d="M243.085 121.277L68.0851 132.062V164.49L243.085 153.705V121.277Z" fill="#5EBEBB"/>
  <!-- ㄹ ( 림 ) -->
  <path d="M344.681 71.3224L278.723 75.8598V82.9787L344.681 77.6596V102.128L254.255 109.043C254.048 84.5529 254.463 77.6438 254.255 53.1542L319.681 47.8723V40.5563L253.723 45.2581V18.2724L344.681 11.7021V71.3224Z" fill="#5EBEBB"/>
  <!-- ㅣ ( ㅣ ) -->
  <path d="M354.255 108.511V2.18516L382.979 0V106.325L354.255 108.511Z" fill="#5EBEBB"/>
  <!-- ㅁ ( 림 ) -->
  <path fill-rule="evenodd" clip-rule="evenodd" d="M265.426 117.729V172.583L381.915 164.894V110.572L265.426 117.729ZM289.894 148.58V139.538L357.447 135.283V144.325L289.894 148.58Z" fill="#5EBEBB"/>

  <!-- ㅁ ( 문 ) -->
  <path fill-rule="evenodd" clip-rule="evenodd" d="M15.9574 201.064V265.426L128.191 257.447V193.617L15.9574 201.064ZM43.0851 238.83V225L102.128 220.745V234.574L43.0851 238.83Z" fill="#414141"/>
  <!-- ㅜ ( 문 ) -->
  <path d="M0 301.596V274.468L143.617 264.894V291.489L89.8936 295.213V316.489L59.5745 318.617V297.34L0 301.596Z" fill="#414141"/>
  <!-- ㄴ ( 문 ) -->
  <path d="M44.149 305.851L13.8298 307.979V359.574L134.575 351.064V321.277L44.149 327.66V305.851Z" fill="#414141"/>
  <!-- ㅂ ( 방 ) -->
  <path fill-rule="evenodd" clip-rule="evenodd" d="M154.255 209.574V292.021L238.83 286.702V203.723L207.447 205.319V223.936L187.234 225V207.447L154.255 209.574ZM186.702 264.894V250.532L206.383 249.468V263.83L186.702 264.894Z" fill="#414141"/>
  <!-- ㅏ ( 방 ) -->
  <path d="M255.319 292.021V194.681L284.574 192.553V227.66L305.851 226.596V257.447L284.574 259.043V290.426L255.319 292.021Z" fill="#414141"/>
  <!-- ㅇ ( 방 ) -->
  <path fill-rule="evenodd" clip-rule="evenodd" d="M193.085 303.191C187.234 303.723 179.787 306.915 176.596 310.106C171.536 315.167 168.617 319.442 168.617 326.596V339.894C168.617 345.378 170.899 348.496 174.468 352.66C177.66 356.383 182.979 359.574 188.298 359.043L267.553 353.723C273.404 352.66 277.292 350.451 281.383 345.745C285.105 341.463 286.67 338.092 287.234 332.447C287.766 327.128 288.462 318.617 287.234 313.298C286.007 307.979 285.106 306.915 281.383 303.191C277.66 299.468 272.34 297.872 266.489 297.872L193.085 303.191ZM254.255 323.404L204.255 326.596C202.128 327.128 200 328.191 200.532 331.383C201.064 334.574 202.66 334.574 204.255 334.574L254.255 331.383C254.255 331.383 257.731 331.383 257.447 327.128C257.199 323.404 254.255 323.404 254.255 323.404Z" fill="#414141"/>
  <!-- ㄱ ( 구 ) -->
  <path d="M317.021 232.979V204.255L436.702 195.745V227.128C436.702 227.128 436.702 230.851 434.043 243.085C431.383 255.319 427.128 265.957 427.128 265.957L394.149 267.021C394.149 267.021 400.532 254.787 402.128 243.085C403.723 231.383 403.723 227.128 403.723 227.128L317.021 232.979Z" fill="#414141"/>
  <!-- ㅜ ( 구 ) -->
  <path d="M306.383 311.702V282.447L451.596 271.809V301.596L395.213 305.319V355.851L362.766 356.915V307.979L306.383 311.702Z" fill="#414141"/>
  <!-- 드림 문방구 글자 부분 끝-->
  <!--컵 아이콘 부분 시작-->
  <path fill-rule="evenodd" clip-rule="evenodd" d="M470.481 107.025C459.381 146.338 441.87 209.643 441.87 209.643C432.975 212.775 419.144 214.688 412.619 213.938C406.11 213.19 380.235 206.117 373.499 202.892C367.939 200.23 353.73 192.949 350.096 185.186L355.143 167.312C355.143 167.312 342.376 165.456 335.186 158.036C330.606 153.31 328.009 149.295 325.945 143.046C323.491 135.617 325.553 125.093 328.409 114.975C330.616 107.16 335 101.416 339.739 97.4188C344.478 93.4212 348.283 91.6361 354.326 90.2494C358.95 89.1883 364.946 89.392 368.599 90.6383C371.536 91.6403 374.168 93.4851 374.168 93.4851L377.739 80.8384C381.141 83.6197 387.193 87.3314 393.7 90.079C394.49 90.4123 395.29 90.7545 396.111 91.1057C402.061 93.6499 409.114 96.6658 421.073 100.175C436.053 104.57 457.535 107.739 460.544 108.043C460.72 108.06 460.895 108.078 461.07 108.097C463.885 108.388 466.589 108.669 470.481 107.025ZM365.16 100.002C364.107 99.0365 362.992 98.0156 361.783 96.7246C357.418 94.7733 354.322 94.4091 349.624 95.2942C344.105 96.3339 341.097 98.5848 337.325 102.745C333.547 106.912 332.148 110.199 330.264 115.499C328.381 120.799 326.152 131.998 327.136 138.831C327.943 144.439 329.801 147.647 333.674 151.783C337.048 155.385 341.707 156.862 344.811 157.476C348.005 158.108 354.663 155.667 357.135 154.692C357.734 154.456 358.087 154.306 358.087 154.306L370.597 106.132C368.844 103.377 367.105 101.784 365.16 100.002Z" fill="#EEEEED"/>
  <path fill-rule="evenodd" clip-rule="evenodd" d="M470.481 107.025C459.381 146.338 441.87 209.643 441.87 209.643C432.975 212.775 419.144 214.688 412.619 213.938C406.11 213.19 380.235 206.117 373.499 202.892C367.939 200.23 353.73 192.949 350.096 185.186L355.143 167.312C355.143 167.312 342.376 165.456 335.186 158.036C330.606 153.31 328.009 149.295 325.945 143.046C323.491 135.617 325.553 125.093 328.409 114.975C330.616 107.16 335 101.416 339.739 97.4188C344.478 93.4212 348.283 91.6361 354.326 90.2494C358.95 89.1883 364.946 89.392 368.599 90.6383C371.536 91.6403 374.168 93.4851 374.168 93.4851L377.739 80.8384C381.141 83.6197 387.193 87.3314 393.7 90.079C394.49 90.4123 395.29 90.7545 396.111 91.1057C402.061 93.6499 409.114 96.6658 421.073 100.175C436.053 104.57 457.535 107.739 460.544 108.043C460.72 108.06 460.895 108.078 461.07 108.097C463.885 108.388 466.589 108.669 470.481 107.025ZM365.16 100.002C364.107 99.0365 362.992 98.0156 361.783 96.7246C357.418 94.7733 354.322 94.4091 349.624 95.2942C344.105 96.3339 341.097 98.5848 337.325 102.745C333.547 106.912 332.148 110.199 330.264 115.499C328.381 120.799 326.152 131.998 327.136 138.831C327.943 144.439 329.801 147.647 333.674 151.783C337.048 155.385 341.707 156.862 344.811 157.476C348.005 158.108 354.663 155.667 357.135 154.692C357.734 154.456 358.087 154.306 358.087 154.306L370.597 106.132C368.844 103.377 367.105 101.784 365.16 100.002Z" fill="url(#paint0_linear)" fill-opacity="0.3"/>
  <path fill-rule="evenodd" clip-rule="evenodd" d="M470.481 107.025C459.381 146.338 441.87 209.643 441.87 209.643C432.975 212.775 419.144 214.688 412.619 213.938C406.11 213.19 380.235 206.117 373.499 202.892C367.939 200.23 353.73 192.949 350.096 185.186L355.143 167.312C355.143 167.312 342.376 165.456 335.186 158.036C330.606 153.31 328.009 149.295 325.945 143.046C323.491 135.617 325.553 125.093 328.409 114.975C330.616 107.16 335 101.416 339.739 97.4188C344.478 93.4212 348.283 91.6361 354.326 90.2494C358.95 89.1883 364.946 89.392 368.599 90.6383C371.536 91.6403 374.168 93.4851 374.168 93.4851L377.739 80.8384C381.141 83.6197 387.193 87.3314 393.7 90.079C394.49 90.4123 395.29 90.7545 396.111 91.1057C402.061 93.6499 409.114 96.6658 421.073 100.175C436.053 104.57 457.535 107.739 460.544 108.043C460.72 108.06 460.895 108.078 461.07 108.097C463.885 108.388 466.589 108.669 470.481 107.025ZM365.16 100.002C364.107 99.0365 362.992 98.0156 361.783 96.7246C357.418 94.7733 354.322 94.4091 349.624 95.2942C344.105 96.3339 341.097 98.5848 337.325 102.745C333.547 106.912 332.148 110.199 330.264 115.499C328.381 120.799 326.152 131.998 327.136 138.831C327.943 144.439 329.801 147.647 333.674 151.783C337.048 155.385 341.707 156.862 344.811 157.476C348.005 158.108 354.663 155.667 357.135 154.692C357.734 154.456 358.087 154.306 358.087 154.306L370.597 106.132C368.844 103.377 367.105 101.784 365.16 100.002Z" fill="url(#paint1_linear)" fill-opacity="0.5"/>
  <path d="M470.481 107.025C459.381 146.338 441.87 209.643 441.87 209.643C432.975 212.775 419.144 214.688 412.619 213.938C406.11 213.19 380.235 206.117 373.499 202.892C367.939 200.23 353.73 192.949 350.096 185.186L355.143 167.312C355.143 167.312 342.376 165.456 335.186 158.036C330.606 153.31 328.009 149.295 325.945 143.046C323.491 135.617 325.553 125.093 328.409 114.975C330.616 107.16 335 101.416 339.739 97.4188C344.478 93.4212 348.283 91.6361 354.326 90.2494C358.95 89.1883 364.946 89.392 368.599 90.6383C371.536 91.6403 374.168 93.4851 374.168 93.4851M470.481 107.025C467.702 103.327 464.017 101.548 459.941 99.8614C459.621 99.729 459.227 99.5644 458.766 99.3716C453.349 97.1093 438.623 90.9583 424.739 87.1907C413.85 84.2359 406.752 83.3132 400.874 82.5491C399.363 82.3526 397.933 82.1666 396.539 81.9593C389.725 80.9456 382.599 80.3901 377.739 80.8384M470.481 107.025C466.589 108.669 463.885 108.388 461.07 108.097C460.895 108.078 460.72 108.06 460.544 108.043C457.535 107.739 436.053 104.57 421.073 100.175C409.114 96.6658 402.061 93.6499 396.111 91.1057C395.29 90.7545 394.49 90.4123 393.7 90.079C387.193 87.3314 381.141 83.6197 377.739 80.8384M374.168 93.4851C374.168 93.4851 376.344 85.7772 377.739 80.8384M374.168 93.4851L377.739 80.8384M361.783 96.7246C357.418 94.7733 354.322 94.4091 349.624 95.2942C344.105 96.3339 341.097 98.5848 337.325 102.745C333.547 106.912 332.148 110.199 330.264 115.499C328.381 120.799 326.152 131.998 327.136 138.831C327.943 144.439 329.801 147.647 333.674 151.783C337.048 155.385 341.707 156.862 344.811 157.476C348.005 158.108 354.663 155.667 357.135 154.692M361.783 96.7246C356.032 97.1035 352.974 98.3507 348.995 102.035C343.572 107.058 340.94 111.072 338.358 117.785C335.776 124.497 335.324 131.463 337.15 139.473C338.614 145.895 341.371 150.315 345.158 153.023C350.092 156.55 355.097 155.404 357.135 154.692M361.783 96.7246C362.992 98.0156 364.107 99.0365 365.16 100.002C367.105 101.784 368.844 103.377 370.597 106.132L358.087 154.306M358.087 154.306C358.087 154.306 357.734 154.456 357.135 154.692M358.087 154.306C358.087 154.306 357.743 154.48 357.135 154.692" stroke="#040504" stroke-width="2.6" stroke-linejoin="round"/>
  <g filter="url(#filter0_d)">
  <path d="M470.914 106.999C467.022 108.643 464.318 108.363 461.503 108.071C461.329 108.053 461.153 108.035 460.977 108.017C457.968 107.714 436.487 104.545 421.506 100.149C409.547 96.6403 402.494 93.6243 396.544 91.0802C395.723 90.729 394.923 90.3867 394.133 90.0534C387.627 87.3059 381.574 83.5941 378.172 80.8129" stroke="#040504" stroke-width="2.6" stroke-linejoin="round"/>
  </g>
  <path d="M349.748 95.2611C354.446 94.376 357.542 94.7402 361.906 96.6915C356.155 97.0704 353.097 98.3176 349.119 102.002C343.695 107.025 341.064 111.039 338.482 117.751C335.9 124.464 335.447 131.43 337.273 139.44C338.737 145.862 341.495 150.282 345.282 152.99C350.215 156.517 355.221 155.371 357.259 154.659C354.786 155.634 348.128 158.075 344.935 157.443C341.831 156.829 337.171 155.352 333.798 151.75C329.925 147.614 328.067 144.406 327.259 138.797C326.275 131.965 328.504 120.766 330.388 115.466C332.271 110.166 333.67 106.879 337.448 102.712C341.22 98.5517 344.229 96.3008 349.748 95.2611Z" fill="#898582" stroke="#040504" stroke-width="2.6" stroke-linejoin="round"/>
  <path d="M396.876 82.0545C390.062 81.0408 382.936 80.4853 378.076 80.9336C381.478 83.7149 387.531 87.4266 394.037 90.1742C400.544 92.9218 407.8 96.2766 421.41 100.27C436.391 104.665 457.872 107.834 460.881 108.138C463.891 108.441 466.684 108.866 470.818 107.12C468.039 103.422 464.354 101.643 460.278 99.9566C459.958 99.8242 459.564 99.6596 459.103 99.4668C453.687 97.2045 438.96 91.0535 425.076 87.2859C414.187 84.3311 407.089 83.4084 401.212 82.6443L401.211 82.6443C399.7 82.4478 398.27 82.2619 396.876 82.0545Z" fill="#9B9997" stroke="#040504" stroke-width="2.6" stroke-linejoin="round"/>
  <path d="M466.147 108.198C484.481 108.198 490.327 64.9197 490.327 64.9197C490.327 64.9197 505.235 46.7851 498.036 47.9238C494.475 48.4872 493.205 50.8337 490.327 53.0051C482.869 58.6301 482.883 72.7556 473.856 70.3514C470.297 69.4035 466.147 61.5669 466.147 64.9197V73.5053C466.147 76.8582 455.55 88.8899 446.523 86.8217C439.488 85.2099 441.284 73.6295 434.082 73.1549C426.405 72.6488 426.437 90.8649 419.89 86.8217C415.202 83.9264 421.895 73.2209 416.386 73.1549C410.859 73.0886 412.706 86.8217 412.706 86.8217C412.706 86.8217 409.068 95.4029 412.706 96.809C441.266 107.848 450.377 108.198 466.147 108.198Z" fill="#5E3200" stroke="black" stroke-width="2.6"/>
  <!-- 별 시작 -->
  <g filter="url(#filter1_d)">
    <path d="M397.511 78.7408C397.006 77.5146 395.314 77.3998 394.648 78.5465L390.854 85.0771C390.59 85.5324 390.118 85.8285 389.593 85.8687L382.063 86.4461C380.741 86.5475 380.109 88.1211 380.993 89.1089L386.032 94.7347C386.383 95.127 386.519 95.667 386.395 96.1788L384.617 103.519C384.305 104.808 385.606 105.895 386.819 105.359L393.727 102.305C394.208 102.092 394.764 102.13 395.212 102.406L401.644 106.365C402.773 107.06 404.209 106.159 404.074 104.84L403.305 97.3266C403.251 96.8027 403.459 96.286 403.86 95.9448L409.612 91.0515C410.623 90.1923 410.209 88.5477 408.912 88.2686L401.529 86.6789C401.015 86.5681 400.587 86.211 400.387 85.7241L397.511 78.7408Z" fill="#FFD142"/>
    <path d="M397.511 78.7408C397.006 77.5146 395.314 77.3998 394.648 78.5465L390.854 85.0771C390.59 85.5324 390.118 85.8285 389.593 85.8687L382.063 86.4461C380.741 86.5475 380.109 88.1211 380.993 89.1089L386.032 94.7347C386.383 95.127 386.519 95.667 386.395 96.1788L384.617 103.519C384.305 104.808 385.606 105.895 386.819 105.359L393.727 102.305C394.208 102.092 394.764 102.13 395.212 102.406L401.644 106.365C402.773 107.06 404.209 106.159 404.074 104.84L403.305 97.3266C403.251 96.8027 403.459 96.286 403.86 95.9448L409.612 91.0515C410.623 90.1923 410.209 88.5477 408.912 88.2686L401.529 86.6789C401.015 86.5681 400.587 86.211 400.387 85.7241L397.511 78.7408Z" fill="url(#paint2_linear)" fill-opacity="0.8"/>
    <path d="M395.772 79.1995L391.978 85.73C391.499 86.5554 390.644 87.092 389.692 87.1649L382.162 87.7423C381.914 87.7613 381.796 88.0564 381.962 88.2416L387 93.8674C387.637 94.5784 387.883 95.5572 387.659 96.4848L385.881 103.825C385.822 104.067 386.066 104.27 386.294 104.17L393.201 101.116C394.074 100.73 395.081 100.799 395.894 101.299L402.325 105.258C402.537 105.388 402.806 105.219 402.781 104.972L402.011 97.459C401.914 96.5095 402.29 95.573 403.017 94.9545L408.77 90.0613C408.959 89.9002 408.882 89.5918 408.639 89.5395L401.256 87.9498C400.323 87.7489 399.548 87.1017 399.185 86.2192L396.309 79.2359C396.214 79.006 395.897 78.9845 395.772 79.1995Z" stroke="#040504" stroke-width="2.6" stroke-linejoin="round"/>
  </g>
  <!-- 별 끝 -->
  <circle r="3.10431" transform="matrix(-1 0 0 1 463.168 56.6846)" fill="#5D3200" stroke="black" stroke-width="0.8"/>
  <g filter="url(#filter2_d)">
  <path d="M350.015 184.891L354.921 167.72" stroke="#040504" stroke-width="2.6" stroke-linejoin="round"/>
  </g>
  <g filter="url(#filter3_d)">
  <path d="M373.396 202.947C367.836 200.285 353.627 193.004 349.993 185.241" stroke="#040504" stroke-width="2.6" stroke-linejoin="round"/>
  </g>
  <path d="M370.691 105.869C370.516 105.518 368.296 102.773 367.187 102.014L369.815 105.694C369.99 105.869 370.165 106.394 370.165 106.745C370.166 107.446 369.698 109.957 369.465 111.125L370.691 106.92C370.866 106.394 370.866 106.219 370.691 105.869Z" fill="white"/>
  <path d="M358.426 154.228L359.652 148.096L357.725 153.878C357.725 153.878 354.221 155.28 353.52 155.28C352.819 155.28 351.312 155.174 349.49 154.754C347.668 154.333 345.226 153.06 344.233 152.476C344.876 152.943 346.511 154.053 347.913 154.754C349.315 155.455 351.067 155.864 351.768 155.98C351.768 155.98 348.263 157.382 346.511 157.382C344.759 157.382 341.605 156.856 341.605 156.856C343.182 157.733 345.285 158.083 346.511 158.083C347.92 158.083 351.943 156.813 353.169 156.331C354.396 155.849 358.426 154.228 358.426 154.228Z" fill="white"/>
  <!-- 카페 못가 글자 시작 앞에서부터 카 페 못 가 -->
  <g filter="url(#filter4_d)">
    <path d="M389.588 134.062L393.507 135.012C393.379 135.477 393.103 136.057 392.804 136.36L389.411 135.537L389.056 137L391.669 137.633C390.925 138.28 390.034 138.981 388.963 139.428L388.405 141.728C390.259 141.215 394.822 138.579 395.648 135.171L395.996 133.737L390.019 132.287L389.588 134.062ZM399.67 133.591L397.71 133.115L394.849 144.914L396.808 145.39L398.296 139.256L400.071 139.686L400.515 137.855L398.74 137.424L399.67 133.591Z" fill="black"/>
    <path d="M401.802 136.859L407.95 138.35L408.356 136.675L402.208 135.183L401.802 136.859ZM405.717 138.32L403.825 141.845L403.772 137.848L402.224 137.473L402.228 142.044L400.638 141.658L400.235 143.319L406.383 144.81L406.786 143.149L405.153 142.753L407.236 138.688L405.717 138.32ZM407.398 139.569L406.909 141.586L408.088 141.871L406.659 147.764L408.178 148.132L411.078 136.177L409.558 135.809L408.577 139.855L407.398 139.569ZM409.016 148.335L410.691 148.742L413.591 136.787L411.915 136.38L409.016 148.335Z" fill="black"/>
    <path d="M420.701 143.006L423.725 143.74L424.748 139.523L416.641 137.557L415.618 141.774L418.855 142.559L418.621 143.524L413.893 142.377L413.511 143.953L424.657 146.657L425.039 145.081L420.467 143.972L420.701 143.006ZM418.206 145.919C417.851 146.329 417.467 146.732 417.049 147.157C416.331 147.885 415.342 148.802 414.228 149.615L416.4 150.141L418.566 148.277C418.678 148.619 418.78 148.945 418.899 149.259C419.112 149.807 419.347 150.45 419.538 150.903L421.596 151.402C421.096 150.303 420.142 148.163 419.949 146.357L418.206 145.919ZM417.563 140.697L417.873 139.419L422.828 140.621L422.518 141.899L417.563 140.697Z" fill="black"/>
    <path d="M427.132 141.424L426.705 143.185L430.624 144.135C430.202 145.566 428.139 147.501 425.776 148.627L425.225 150.899C426.43 150.394 427.531 149.82 428.551 149.15C430.261 148.046 432.121 146.393 432.603 144.405L432.982 142.843L427.132 141.424ZM435.771 146.406L436.701 142.572L434.841 142.121L432.013 153.778L433.873 154.229L435.327 148.238L437.101 148.668L437.546 146.836L435.771 146.406Z" fill="black"/>
  </g>
  <!-- 카페 못가 글자 끝 -->
  <defs>
    <filter id="filter0_d" x="366.461" y="74.5247" width="114.559" height="53.5291" filterUnits="userSpaceOnUse" color-interpolation-filters="sRGB">
      <feFlood flood-opacity="0" result="BackgroundImageFix"/>
      <feColorMatrix in="SourceAlpha" type="matrix" values="0 0 0 0 0 0 0 0 0 0 0 0 0 0 0 0 0 0 127 0" result="hardAlpha"/>
      <feOffset dy="4"/>
      <feGaussianBlur stdDeviation="4.5"/>
      <feComposite in2="hardAlpha" operator="out"/>
      <feColorMatrix type="matrix" values="0 0 0 0 0 0 0 0 0 0 0 0 0 0 0 0 0 0 0.8 0"/>
      <feBlend mode="normal" in2="BackgroundImageFix" result="effect1_dropShadow"/>
      <feBlend mode="normal" in="SourceGraphic" in2="effect1_dropShadow" result="shape"/>
    </filter>
    <filter id="filter1_d" x="371.426" y="68.7497" width="47.5073" height="46.3034" filterUnits="userSpaceOnUse" color-interpolation-filters="sRGB">
      <feFlood flood-opacity="0" result="BackgroundImageFix"/>
      <feColorMatrix in="SourceAlpha" type="matrix" values="0 0 0 0 0 0 0 0 0 0 0 0 0 0 0 0 0 0 127 0" result="hardAlpha"/>
      <feOffset/>
      <feGaussianBlur stdDeviation="4"/>
      <feComposite in2="hardAlpha" operator="out"/>
      <feColorMatrix type="matrix" values="0 0 0 0 0 0 0 0 0 0 0 0 0 0 0 0 0 0 0.3 0"/>
      <feBlend mode="normal" in2="BackgroundImageFix" result="effect1_dropShadow"/>
      <feBlend mode="normal" in="SourceGraphic" in2="effect1_dropShadow" result="shape"/>
    </filter>
    <filter id="filter2_d" x="337.765" y="159.363" width="25.406" height="35.8854" filterUnits="userSpaceOnUse" color-interpolation-filters="sRGB">
      <feFlood flood-opacity="0" result="BackgroundImageFix"/>
      <feColorMatrix in="SourceAlpha" type="matrix" values="0 0 0 0 0 0 0 0 0 0 0 0 0 0 0 0 0 0 127 0" result="hardAlpha"/>
      <feOffset dx="-2" dy="1"/>
      <feGaussianBlur stdDeviation="4.5"/>
      <feComposite in2="hardAlpha" operator="out"/>
      <feColorMatrix type="matrix" values="0 0 0 0 0 0 0 0 0 0 0 0 0 0 0 0 0 0 0.6 0"/>
      <feBlend mode="normal" in2="BackgroundImageFix" result="effect1_dropShadow"/>
      <feBlend mode="normal" in="SourceGraphic" in2="effect1_dropShadow" result="shape"/>
    </filter>
    <filter id="filter3_d" x="336.796" y="173.156" width="48.9461" height="38.0843" filterUnits="userSpaceOnUse" color-interpolation-filters="sRGB">
      <feFlood flood-opacity="0" result="BackgroundImageFix"/>
      <feColorMatrix in="SourceAlpha" type="matrix" values="0 0 0 0 0 0 0 0 0 0 0 0 0 0 0 0 0 0 127 0" result="hardAlpha"/>
      <feOffset dy="-2"/>
      <feGaussianBlur stdDeviation="4.5"/>
      <feComposite in2="hardAlpha" operator="out"/>
      <feColorMatrix type="matrix" values="0 0 0 0 0 0 0 0 0 0 0 0 0 0 0 0 0 0 0.6 0"/>
      <feBlend mode="normal" in2="BackgroundImageFix" result="effect1_dropShadow"/>
      <feBlend mode="normal" in="SourceGraphic" in2="effect1_dropShadow" result="shape"/>
    </filter>
    <filter id="filter4_d" x="373.19" y="115.792" width="70.7583" height="60.8892" filterUnits="userSpaceOnUse" color-interpolation-filters="sRGB">
      <feFlood flood-opacity="0" result="BackgroundImageFix"/>
      <feColorMatrix in="SourceAlpha" type="matrix" values="0 0 0 0 0 0 0 0 0 0 0 0 0 0 0 0 0 0 127 0" result="hardAlpha"/>
      <feOffset dx="-4" dy="4"/>
      <feGaussianBlur stdDeviation="4"/>
      <feComposite in2="hardAlpha" operator="out"/>
      <feColorMatrix type="matrix" values="0 0 0 0 0 0 0 0 0 0 0 0 0 0 0 0 0 0 0.2 0"/>
      <feBlend mode="normal" in2="BackgroundImageFix" result="effect1_dropShadow"/>
      <feBlend mode="normal" in="SourceGraphic" in2="effect1_dropShadow" result="shape"/>
    </filter>
    <linearGradient id="paint0_linear" x1="434.358" y1="161.451" x2="376.421" y2="144.181" gradientUnits="userSpaceOnUse">
      <stop/>
      <stop offset="1" stop-opacity="0"/>
    </linearGradient>
    <linearGradient id="paint1_linear" x1="336.173" y1="124.617" x2="439.901" y2="150.724" gradientUnits="userSpaceOnUse">
      <stop stop-color="white"/>
      <stop offset="1" stop-color="white" stop-opacity="0"/>
    </linearGradient>
    <linearGradient id="paint2_linear" x1="397.637" y1="72.2788" x2="393.608" y2="99.9628" gradientUnits="userSpaceOnUse">
      <stop stop-color="#560C0C"/>
      <stop offset="1" stop-opacity="0"/>
    </linearGradient>
  </defs>
  <!--컵 아이콘 부분 끝-->
</svg>
