<svg width="843" height="172" viewBox="0 0 843 172" fill="none" xmlns="http://www.w3.org/2000/svg">
  <!-- 드림 문방구 글자 부분 시작-->
  <!-- ㄷ ( 드 ) -->
  <path d="M137.5 25L23 33.1429L23.5714 116.571L138.071 109.571V81L53.2857 86V60.5L137.5 54.1429V25Z" fill="#5EBEBB"/>
  <!-- ㅡ ( 드 ) -->
  <path d="M164.5 116L0 126.138V156.621L164.5 146.483V116Z" fill="#5EBEBB"/>
  <!-- ㄹ ( 림 ) -->
  <path d="M260 69.0431L198 73.3082V80L260 75V98L175 104.5C174.805 81.4797 175.195 74.9852 175 51.9649L236.5 47V40.1229L174.5 44.5426V19.176L260 13V69.0431Z" fill="#5EBEBB"/>
  <!-- ㅣ ( 림 ) -->
  <path d="M269 104V4.05405L296 2V101.946L269 104Z" fill="#5EBEBB"/>
  <!-- ㅁ ( 림 ) -->
  <path fill-rule="evenodd" clip-rule="evenodd" d="M185.5 112.666V164.228L295 157V105.938L185.5 112.666ZM208.5 141.666V133.166L272 129.166V137.666L208.5 141.666Z" fill="#5EBEBB"/>
  
   <!-- ㅁ ( 문 ) -->
  <path fill-rule="evenodd" clip-rule="evenodd" d="M433 8V68.5L538.5 61V1L433 8ZM458.5 43.5V30.5L514 26.5V39.5L458.5 43.5Z" fill="#414141"/>
  <!-- ㅜ ( 문 ) -->
  <path d="M418 102.5V77L553 68V93L502.5 96.5V116.5L474 118.5V98.5L418 102.5Z" fill="#414141"/>
  <!-- ㄴ ( 문 ) -->
  <path d="M459.5 106.5L431 108.5V157L544.5 149V121L459.5 127V106.5Z" fill="#414141"/>
  <!-- ㅂ ( 방 ) -->
  <path fill-rule="evenodd" clip-rule="evenodd" d="M563 16V93.5L642.5 88.5V10.5L613 12V29.5L594 30.5V14L563 16ZM593.5 68V54.5L612 53.5V67L593.5 68Z" fill="#414141"/>
  <!-- ㅏ ( 방 ) -->
  <path d="M658 93.5V2L685.5 0V33L705.5 32V61L685.5 62.5V92L658 93.5Z" fill="#414141"/>
  <!-- ㅇ ( 방 ) -->
  <path fill-rule="evenodd" clip-rule="evenodd" d="M599.5 104C594 104.5 587 107.5 584 110.5C579.243 115.257 576.5 119.275 576.5 126V138.5C576.5 143.655 578.645 146.586 582 150.5C585 154 590 157 595 156.5L669.5 151.5C675 150.5 678.655 148.424 682.5 144C685.999 139.975 687.469 136.807 688 131.5C688.5 126.5 689.154 118.5 688 113.5C686.846 108.5 686 107.5 682.5 104C679 100.5 674 99 668.5 99L599.5 104ZM657 123L610 126C608 126.5 606 127.5 606.5 130.5C607 133.5 608.5 133.5 610 133.5L657 130.5C657 130.5 660.267 130.5 660 126.5C659.767 123 657 123 657 123Z" fill="#414141"/>
  <!-- ㄱ ( 구 ) -->
  <path d="M716 38V11L828.5 3V32.5C828.5 32.5 828.5 36 826 47.5C823.5 59 819.5 69 819.5 69L788.5 70C788.5 70 794.5 58.5 796 47.5C797.5 36.5 797.5 32.5 797.5 32.5L716 38Z" fill="#414141"/>
  <!-- ㅜ ( 구 ) -->
  <path d="M706 112V84.5L842.5 74.5V102.5L789.5 106V153.5L759 154.5V108.5L706 112Z" fill="#414141"/>
  <!-- 드림 문방구 글자 부분 끝-->
  <!--컵 아이콘 부분 시작-->
  <path fill-rule="evenodd" clip-rule="evenodd" d="M413.252 61.6034C402.818 98.5578 386.358 158.064 386.358 158.064C377.996 161.009 364.995 162.806 358.862 162.102C352.743 161.398 328.421 154.75 322.089 151.718C316.863 149.216 303.506 142.372 300.09 135.075L304.834 118.273C304.834 118.273 292.834 116.528 286.075 109.554C281.77 105.111 279.329 101.337 277.389 95.4634C275.082 88.4798 277.019 78.5872 279.705 69.0769C281.779 61.7305 285.9 56.3315 290.355 52.5737C294.809 48.8159 298.386 47.1379 304.066 45.8345C308.413 44.837 314.049 45.0284 317.483 46.2C320.244 47.1419 322.718 48.876 322.718 48.876L326.074 36.9881C329.272 39.6025 334.962 43.0915 341.078 45.6742C341.82 45.9875 342.572 46.3092 343.345 46.6394C348.937 49.0309 355.567 51.8658 366.808 55.1642C380.89 59.296 401.083 62.2747 403.912 62.56C404.077 62.5767 404.242 62.5938 404.406 62.6108C407.052 62.885 409.593 63.1485 413.252 61.6034ZM314.251 55.0018C313.26 54.0943 312.213 53.1347 311.076 51.9211C306.973 50.0869 304.063 49.7446 299.647 50.5766C294.459 51.5539 291.631 53.6697 288.085 57.5806C284.534 61.4976 283.219 64.5872 281.448 69.5692C279.678 74.5511 277.583 85.0785 278.507 91.5007C279.267 96.7725 281.013 99.7883 284.654 103.676C287.825 107.062 292.205 108.45 295.123 109.028C298.124 109.622 304.383 107.327 306.707 106.411C307.27 106.189 307.602 106.048 307.602 106.048L319.361 60.7639C317.713 58.1745 316.079 56.6768 314.251 55.0018Z" fill="#EEEEED"/>
  <path fill-rule="evenodd" clip-rule="evenodd" d="M413.252 61.6034C402.818 98.5578 386.358 158.064 386.358 158.064C377.996 161.009 364.995 162.806 358.862 162.102C352.743 161.398 328.421 154.75 322.089 151.718C316.863 149.216 303.506 142.372 300.09 135.075L304.834 118.273C304.834 118.273 292.834 116.528 286.075 109.554C281.77 105.111 279.329 101.337 277.389 95.4634C275.082 88.4798 277.019 78.5872 279.705 69.0769C281.779 61.7305 285.9 56.3315 290.355 52.5737C294.809 48.8159 298.386 47.1379 304.066 45.8345C308.413 44.837 314.049 45.0284 317.483 46.2C320.244 47.1419 322.718 48.876 322.718 48.876L326.074 36.9881C329.272 39.6025 334.962 43.0915 341.078 45.6742C341.82 45.9875 342.572 46.3092 343.345 46.6394C348.937 49.0309 355.567 51.8658 366.808 55.1642C380.89 59.296 401.083 62.2747 403.912 62.56C404.077 62.5767 404.242 62.5938 404.406 62.6108C407.052 62.885 409.593 63.1485 413.252 61.6034ZM314.251 55.0018C313.26 54.0943 312.213 53.1347 311.076 51.9211C306.973 50.0869 304.063 49.7446 299.647 50.5766C294.459 51.5539 291.631 53.6697 288.085 57.5806C284.534 61.4976 283.219 64.5872 281.448 69.5692C279.678 74.5511 277.583 85.0785 278.507 91.5007C279.267 96.7725 281.013 99.7883 284.654 103.676C287.825 107.062 292.205 108.45 295.123 109.028C298.124 109.622 304.383 107.327 306.707 106.411C307.27 106.189 307.602 106.048 307.602 106.048L319.361 60.7639C317.713 58.1745 316.079 56.6768 314.251 55.0018Z" fill="url(#paint0_linear)" fill-opacity="0.3"/>
  <path fill-rule="evenodd" clip-rule="evenodd" d="M413.252 61.6034C402.818 98.5578 386.358 158.064 386.358 158.064C377.996 161.009 364.995 162.806 358.862 162.102C352.743 161.398 328.421 154.75 322.089 151.718C316.863 149.216 303.506 142.372 300.09 135.075L304.834 118.273C304.834 118.273 292.834 116.528 286.075 109.554C281.77 105.111 279.329 101.337 277.389 95.4634C275.082 88.4798 277.019 78.5872 279.705 69.0769C281.779 61.7305 285.9 56.3315 290.355 52.5737C294.809 48.8159 298.386 47.1379 304.066 45.8345C308.413 44.837 314.049 45.0284 317.483 46.2C320.244 47.1419 322.718 48.876 322.718 48.876L326.074 36.9881C329.272 39.6025 334.962 43.0915 341.078 45.6742C341.82 45.9875 342.572 46.3092 343.345 46.6394C348.937 49.0309 355.567 51.8658 366.808 55.1642C380.89 59.296 401.083 62.2747 403.912 62.56C404.077 62.5767 404.242 62.5938 404.406 62.6108C407.052 62.885 409.593 63.1485 413.252 61.6034ZM314.251 55.0018C313.26 54.0943 312.213 53.1347 311.076 51.9211C306.973 50.0869 304.063 49.7446 299.647 50.5766C294.459 51.5539 291.631 53.6697 288.085 57.5806C284.534 61.4976 283.219 64.5872 281.448 69.5692C279.678 74.5511 277.583 85.0785 278.507 91.5007C279.267 96.7725 281.013 99.7883 284.654 103.676C287.825 107.062 292.205 108.45 295.123 109.028C298.124 109.622 304.383 107.327 306.707 106.411C307.27 106.189 307.602 106.048 307.602 106.048L319.361 60.7639C317.713 58.1745 316.079 56.6768 314.251 55.0018Z" fill="url(#paint1_linear)" fill-opacity="0.5"/>
  <path d="M413.252 61.6034C402.818 98.5578 386.358 158.064 386.358 158.064C377.996 161.009 364.995 162.806 358.862 162.102C352.743 161.398 328.421 154.75 322.089 151.718C316.863 149.216 303.506 142.372 300.09 135.075L304.834 118.273C304.834 118.273 292.834 116.528 286.075 109.554C281.77 105.111 279.329 101.337 277.389 95.4634C275.082 88.4798 277.019 78.5872 279.705 69.0769C281.779 61.7305 285.9 56.3315 290.355 52.5737C294.809 48.8159 298.386 47.1379 304.066 45.8345C308.413 44.837 314.049 45.0284 317.483 46.2C320.244 47.1419 322.718 48.876 322.718 48.876M413.252 61.6034C410.64 58.1275 407.176 56.4548 403.345 54.8697C403.044 54.7452 402.674 54.5905 402.24 54.4093C397.148 52.2828 383.305 46.5008 370.254 42.9593C360.019 40.1817 353.347 39.3144 347.822 38.5961C346.401 38.4114 345.057 38.2366 343.747 38.0418C337.341 37.0888 330.643 36.5667 326.074 36.9881M413.252 61.6034C409.593 63.1485 407.052 62.885 404.406 62.6108C404.242 62.5938 404.077 62.5767 403.912 62.56C401.083 62.2747 380.89 59.296 366.808 55.1642C355.567 51.8658 348.937 49.0309 343.345 46.6394C342.572 46.3092 341.82 45.9875 341.078 45.6742C334.962 43.0915 329.272 39.6025 326.074 36.9881M322.718 48.876C322.718 48.876 324.763 41.6306 326.074 36.9881M322.718 48.876L326.074 36.9881M311.076 51.9211C306.973 50.0869 304.063 49.7446 299.647 50.5766C294.459 51.5539 291.631 53.6697 288.085 57.5806C284.534 61.4976 283.219 64.5872 281.448 69.5692C279.678 74.5511 277.583 85.0785 278.507 91.5007C279.267 96.7725 281.013 99.7883 284.654 103.676C287.825 107.062 292.205 108.45 295.123 109.028C298.124 109.622 304.383 107.327 306.707 106.411M311.076 51.9211C305.67 52.2773 302.795 53.4496 299.056 56.9131C293.957 61.6346 291.484 65.4074 289.057 71.7174C286.63 78.0275 286.204 84.5749 287.921 92.105C289.297 98.1412 291.889 102.296 295.449 104.841C300.086 108.157 304.791 107.08 306.707 106.411M311.076 51.9211C312.213 53.1347 313.26 54.0943 314.251 55.0018C316.079 56.6768 317.713 58.1745 319.361 60.7639L307.602 106.048M307.602 106.048C307.602 106.048 307.27 106.189 306.707 106.411M307.602 106.048C307.602 106.048 307.278 106.211 306.707 106.411" stroke="#040504" stroke-width="2.6" stroke-linejoin="round"/>

  <g filter="url(#filter0_d)">
    <path d="M413.659 61.5794C410 63.1245 407.459 62.861 404.813 62.5868C404.649 62.5698 404.484 62.5527 404.319 62.536C401.49 62.2507 381.297 59.272 367.215 55.1402C355.974 51.8418 349.344 49.0069 343.752 46.6154C342.98 46.2852 342.227 45.9635 341.485 45.6502C335.369 43.0675 329.68 39.5785 326.481 36.9641" stroke="#040504" stroke-width="2.6" stroke-linejoin="round"/>
  </g>
  <path d="M299.763 50.5455C304.179 49.7135 307.089 50.0558 311.192 51.89C305.786 52.2462 302.911 53.4185 299.172 56.882C294.073 61.6035 291.6 65.3763 289.173 71.6863C286.746 77.9964 286.32 84.5438 288.037 92.0739C289.413 98.1101 292.005 102.265 295.565 104.81C300.202 108.126 304.907 107.049 306.823 106.38C304.499 107.296 298.24 109.591 295.239 108.997C292.321 108.419 287.941 107.031 284.77 103.645C281.129 99.7572 279.383 96.7414 278.624 91.4696C277.699 85.0474 279.794 74.52 281.564 69.5381C283.335 64.5561 284.65 61.4665 288.201 57.5495C291.747 53.6386 294.575 51.5228 299.763 50.5455Z" fill="#898582" stroke="#040504" stroke-width="2.6" stroke-linejoin="round"/>
  <path d="M344.064 38.1313C337.658 37.1783 330.96 36.6562 326.391 37.0776C329.589 39.692 335.279 43.181 341.395 45.7638C347.512 48.3465 354.332 51.5 367.125 55.2537C381.207 59.3855 401.4 62.3642 404.229 62.6495C407.057 62.9349 409.683 63.3339 413.569 61.6929C410.957 58.217 407.493 56.5443 403.662 54.9592C403.361 54.8347 402.991 54.6801 402.557 54.4989L402.557 54.4988C397.465 52.3723 383.622 46.5903 370.571 43.0488C360.336 40.2712 353.664 39.4039 348.139 38.6856C346.718 38.501 345.374 38.3261 344.064 38.1313Z" fill="#9B9997" stroke="#040504" stroke-width="2.6" stroke-linejoin="round"/>
  <path d="M409.178 62.7061C426.412 62.7061 431.907 22.0245 431.907 22.0245C431.907 22.0245 445.921 4.97795 439.154 6.04838C435.806 6.57798 434.613 8.7837 431.907 10.8248C424.897 16.1123 424.91 29.3903 416.425 27.1303C413.08 26.2393 409.178 18.8728 409.178 22.0245V30.095C409.178 33.2467 399.217 44.5565 390.731 42.6124C384.118 41.0974 385.807 30.2117 379.037 29.7656C371.82 29.2899 371.85 46.413 365.697 42.6124C361.29 39.8908 367.581 29.8277 362.403 29.7656C357.207 29.7033 358.944 42.6124 358.944 42.6124C358.944 42.6124 355.524 50.6787 358.944 52.0004C385.79 62.3767 394.355 62.7061 409.178 62.7061Z" fill="#5E3200" stroke="black" stroke-width="2.6"/>
  <!-- 별 시작 -->
  <g filter="url(#filter1_d)">
    <path d="M344.734 35.1962C344.229 33.97 342.537 33.8552 341.871 35.0019L338.428 40.9288C338.164 41.3842 337.692 41.6802 337.167 41.7205L330.333 42.2445C329.011 42.3459 328.379 43.9194 329.263 44.9073L333.836 50.013C334.188 50.4053 334.324 50.9453 334.2 51.4571L332.586 58.1187C332.274 59.4076 333.575 60.4949 334.788 59.9587L341.057 57.1874C341.539 56.9745 342.094 57.0122 342.543 57.2882L348.38 60.8813C349.509 61.5765 350.945 60.6749 350.81 59.3557L350.112 52.5372C350.058 52.0133 350.265 51.4966 350.667 51.1554L355.887 46.7144C356.898 45.8552 356.484 44.2107 355.188 43.9315L348.487 42.4888C347.972 42.378 347.545 42.0209 347.344 41.534L344.734 35.1962Z" fill="#FFD142"/>
    <path d="M344.734 35.1962C344.229 33.97 342.537 33.8552 341.871 35.0019L338.428 40.9288C338.164 41.3842 337.692 41.6802 337.167 41.7205L330.333 42.2445C329.011 42.3459 328.379 43.9194 329.263 44.9073L333.836 50.013C334.188 50.4053 334.324 50.9453 334.2 51.4571L332.586 58.1187C332.274 59.4076 333.575 60.4949 334.788 59.9587L341.057 57.1874C341.539 56.9745 342.094 57.0122 342.543 57.2882L348.38 60.8813C349.509 61.5765 350.945 60.6749 350.81 59.3557L350.112 52.5372C350.058 52.0133 350.265 51.4966 350.667 51.1554L355.887 46.7144C356.898 45.8552 356.484 44.2107 355.188 43.9315L348.487 42.4888C347.972 42.378 347.545 42.0209 347.344 41.534L344.734 35.1962Z" fill="url(#paint2_linear)" fill-opacity="0.8"/>
    <path d="M342.995 35.6549L339.552 41.5818C339.073 42.4071 338.218 42.9437 337.267 43.0167L330.432 43.5407C330.184 43.5597 330.066 43.8547 330.232 44.04L334.805 49.1457C335.442 49.8567 335.688 50.8355 335.463 51.7631L333.85 58.4247C333.791 58.6664 334.035 58.8703 334.262 58.7697L340.531 55.9984C341.404 55.6125 342.411 55.6808 343.224 56.1812L349.061 59.7742C349.273 59.9046 349.542 59.7355 349.517 59.4882L348.818 52.6697C348.721 51.7202 349.097 50.7836 349.824 50.1652L355.045 45.7242C355.235 45.5631 355.157 45.2548 354.914 45.2024L348.213 43.7597C347.28 43.5588 346.506 42.9116 346.142 42.0291L343.532 35.6913C343.437 35.4614 343.12 35.4399 342.995 35.6549Z" stroke="#040504" stroke-width="2.6" stroke-linejoin="round"/>
  </g>
  <!-- 별 끝 -->
  <circle r="2.89405" transform="matrix(-1 0 0 1 406.378 14.2835)" fill="#5D3200" stroke="black" stroke-width="0.8"/>
  <g filter="url(#filter2_d)">
    <path d="M300.014 134.798L304.626 118.657" stroke="#040504" stroke-width="2.6" stroke-linejoin="round"/>
  </g>
  <g filter="url(#filter3_d)">
    <path d="M321.992 151.77C316.765 149.268 303.409 142.424 299.993 135.127" stroke="#040504" stroke-width="2.6" stroke-linejoin="round"/>
  </g>
  <path d="M319.45 60.5165C319.285 60.1871 317.199 57.6068 316.156 56.8931L318.626 60.3518C318.791 60.5165 318.955 61.0106 318.955 61.34C318.956 61.9988 318.516 64.3596 318.297 65.4576L319.45 61.5047C319.614 61.0106 319.614 60.8459 319.45 60.5165Z" fill="white"/>
  <path d="M307.92 105.975L309.073 100.21L307.262 105.645C307.262 105.645 303.967 106.963 303.309 106.963C302.65 106.963 301.233 106.864 299.52 106.469C297.808 106.073 295.513 104.877 294.579 104.328C295.183 104.767 296.721 105.81 298.038 106.469C299.356 107.127 301.003 107.512 301.662 107.622C301.662 107.622 298.368 108.939 296.721 108.939C295.074 108.939 292.109 108.445 292.109 108.445C293.591 109.269 295.568 109.598 296.721 109.598C298.045 109.598 301.826 108.404 302.979 107.951C304.132 107.498 307.92 105.975 307.92 105.975Z" fill="white"/>
  <!-- 카페 못가 글자 시작 앞에서부터 카 페 못 가 -->
  <g filter="url(#filter4_d)">
    <path d="M337.213 87.0182L340.897 87.9116C340.776 88.3488 340.517 88.8936 340.236 89.1787L337.046 88.405L336.713 89.7797L339.168 90.3754C338.47 90.9832 337.632 91.6419 336.625 92.062L336.101 94.2242C337.843 93.7423 342.133 91.2639 342.909 88.0607L343.236 86.7127L337.618 85.3499L337.213 87.0182ZM346.69 86.5752L344.848 86.1285L342.158 97.2194L344 97.6662L345.398 91.9005L347.066 92.3051L347.484 90.5834L345.816 90.1788L346.69 86.5752Z" fill="black"/>
    <path d="M348.694 89.6474L354.473 91.0491L354.855 89.4742L349.076 88.0725L348.694 89.6474ZM352.374 91.0205L350.595 94.334L350.546 90.577L349.091 90.2242L349.094 94.5211L347.599 94.1585L347.221 95.72L353 97.1217L353.379 95.5602L351.844 95.1879L353.802 91.3669L352.374 91.0205ZM353.954 92.1952L353.495 94.0904L354.603 94.3591L353.259 99.8979L354.687 100.244L357.413 89.0065L355.985 88.6601L355.062 92.4639L353.954 92.1952ZM355.475 100.435L357.05 100.817L359.775 89.5795L358.2 89.1975L355.475 100.435Z" fill="black"/>
    <path d="M366.459 95.426L369.302 96.1156L370.263 92.1516L362.643 90.3032L361.681 94.2671L364.724 95.0052L364.504 95.9128L360.06 94.8348L359.7 96.3163L370.177 98.8574L370.537 97.376L366.239 96.3336L366.459 95.426ZM364.113 98.1639C363.78 98.5493 363.419 98.9282 363.026 99.3274C362.351 100.012 361.421 100.874 360.374 101.638L362.416 102.133L364.452 100.38C364.558 100.702 364.653 101.008 364.765 101.304C364.965 101.819 365.186 102.423 365.365 102.848L367.301 103.318C366.83 102.285 365.934 100.273 365.752 98.5754L364.113 98.1639ZM363.509 93.255L363.801 92.0538L368.459 93.1836L368.167 94.3848L363.509 93.255Z" fill="black"/>
    <path d="M372.504 93.9387L372.103 95.5937L375.786 96.4871C375.389 97.8323 373.45 99.6513 371.229 100.709L370.711 102.845C371.844 102.371 372.879 101.83 373.838 101.201C375.446 100.164 377.194 98.6091 377.647 96.7405L378.003 95.2724L372.504 93.9387ZM380.625 98.6216L381.499 95.018L379.75 94.594L377.092 105.551L378.841 105.976L380.207 100.343L381.875 100.748L382.293 99.0262L380.625 98.6216Z" fill="black"/>
  </g>
  <!-- 카페 못가 글자 끝 -->
  <defs>
    <filter id="filter0_d" x="314.882" y="30.6759" width="108.883" height="51.5629" filterUnits="userSpaceOnUse" color-interpolation-filters="sRGB">
      <feFlood flood-opacity="0" result="BackgroundImageFix"/>
      <feColorMatrix in="SourceAlpha" type="matrix" values="0 0 0 0 0 0 0 0 0 0 0 0 0 0 0 0 0 0 127 0" result="hardAlpha"/>
      <feOffset dy="4"/>
      <feGaussianBlur stdDeviation="4.5"/>
      <feComposite in2="hardAlpha" operator="out"/>
      <feColorMatrix type="matrix" values="0 0 0 0 0 0 0 0 0 0 0 0 0 0 0 0 0 0 0.8 0"/>
      <feBlend mode="normal" in2="BackgroundImageFix" result="effect1_dropShadow"/>
      <feBlend mode="normal" in="SourceGraphic" in2="effect1_dropShadow" result="shape"/>
    </filter>
    <filter id="filter1_d" x="319.775" y="25.2728" width="45.3834" height="44.2705" filterUnits="userSpaceOnUse" color-interpolation-filters="sRGB">
      <feFlood flood-opacity="0" result="BackgroundImageFix"/>
      <feColorMatrix in="SourceAlpha" type="matrix" values="0 0 0 0 0 0 0 0 0 0 0 0 0 0 0 0 0 0 127 0" result="hardAlpha"/>
      <feOffset/>
      <feGaussianBlur stdDeviation="4"/>
      <feComposite in2="hardAlpha" operator="out"/>
      <feColorMatrix type="matrix" values="0 0 0 0 0 0 0 0 0 0 0 0 0 0 0 0 0 0 0.3 0"/>
      <feBlend mode="normal" in2="BackgroundImageFix" result="effect1_dropShadow"/>
      <feBlend mode="normal" in="SourceGraphic" in2="effect1_dropShadow" result="shape"/>
    </filter>
    <filter id="filter2_d" x="287.764" y="110.3" width="25.1116" height="34.8551" filterUnits="userSpaceOnUse" color-interpolation-filters="sRGB">
      <feFlood flood-opacity="0" result="BackgroundImageFix"/>
      <feColorMatrix in="SourceAlpha" type="matrix" values="0 0 0 0 0 0 0 0 0 0 0 0 0 0 0 0 0 0 127 0" result="hardAlpha"/>
      <feOffset dx="-2" dy="1"/>
      <feGaussianBlur stdDeviation="4.5"/>
      <feComposite in2="hardAlpha" operator="out"/>
      <feColorMatrix type="matrix" values="0 0 0 0 0 0 0 0 0 0 0 0 0 0 0 0 0 0 0.6 0"/>
      <feBlend mode="normal" in2="BackgroundImageFix" result="effect1_dropShadow"/>
      <feBlend mode="normal" in="SourceGraphic" in2="effect1_dropShadow" result="shape"/>
    </filter>
    <filter id="filter3_d" x="286.971" y="123.041" width="47.1937" height="37.022" filterUnits="userSpaceOnUse" color-interpolation-filters="sRGB">
      <feFlood flood-opacity="0" result="BackgroundImageFix"/>
      <feColorMatrix in="SourceAlpha" type="matrix" values="0 0 0 0 0 0 0 0 0 0 0 0 0 0 0 0 0 0 127 0" result="hardAlpha"/>
      <feOffset dy="-2"/>
      <feGaussianBlur stdDeviation="4.5"/>
      <feComposite in2="hardAlpha" operator="out"/>
      <feColorMatrix type="matrix" values="0 0 0 0 0 0 0 0 0 0 0 0 0 0 0 0 0 0 0.6 0"/>
      <feBlend mode="normal" in2="BackgroundImageFix" result="effect1_dropShadow"/>
      <feBlend mode="normal" in="SourceGraphic" in2="effect1_dropShadow" result="shape"/>
    </filter>
    <filter id="filter4_d" x="321.054" y="69.5842" width="67.5172" height="58.2432" filterUnits="userSpaceOnUse" color-interpolation-filters="sRGB">
      <feFlood flood-opacity="0" result="BackgroundImageFix"/>
      <feColorMatrix in="SourceAlpha" type="matrix" values="0 0 0 0 0 0 0 0 0 0 0 0 0 0 0 0 0 0 127 0" result="hardAlpha"/>
      <feOffset dx="-4" dy="4"/>
      <feGaussianBlur stdDeviation="4"/>
      <feComposite in2="hardAlpha" operator="out"/>
      <feColorMatrix type="matrix" values="0 0 0 0 0 0 0 0 0 0 0 0 0 0 0 0 0 0 0.2 0"/>
      <feBlend mode="normal" in2="BackgroundImageFix" result="effect1_dropShadow"/>
      <feBlend mode="normal" in="SourceGraphic" in2="effect1_dropShadow" result="shape"/>
    </filter>
    <linearGradient id="paint0_linear" x1="379.297" y1="112.764" x2="324.836" y2="96.5305" gradientUnits="userSpaceOnUse">
      <stop/>
      <stop offset="1" stop-opacity="0"/>
    </linearGradient>
    <linearGradient id="paint1_linear" x1="287.003" y1="78.1398" x2="384.507" y2="102.68" gradientUnits="userSpaceOnUse">
      <stop stop-color="white"/>
      <stop offset="1" stop-color="white" stop-opacity="0"/>
    </linearGradient>
    <linearGradient id="paint2_linear" x1="344.779" y1="28.9421" x2="340.991" y2="54.9651" gradientUnits="userSpaceOnUse">
      <stop stop-color="#560C0C"/>
      <stop offset="1" stop-opacity="0"/>
    </linearGradient>
  </defs>
  <!--컵 아이콘 부분 끝-->
</svg>
